<svg width="53" height="40" viewBox="0 0 53 40" fill="none" xmlns="http://www.w3.org/2000/svg">
<g clip-path="url(#clip0_143_3465)">
<path d="M52.2237 16.3625C51.9425 16.1262 51.5213 16.1637 51.2838 16.4475L48.325 19.9975C48.2612 19.9775 48.1963 19.9575 48.125 20H46.3863L48.5988 17.3025C48.835 17.0187 48.7962 16.5988 48.5138 16.3625C48.2313 16.1262 47.81 16.1637 47.5737 16.4475L44.6488 20H42.675L44.8875 17.3025C45.1237 17.0187 45.085 16.5988 44.8025 16.3625C44.5212 16.1262 44.1 16.1637 43.8625 16.4475L40.9375 20H39.9975C39.9737 8.94875 31.0138 0 20 0C8.9725 0 0 8.9725 0 20C0 31.0275 8.9725 40 20 40C30.5912 40 39.2625 31.7175 39.935 21.25H40.9388L43.8638 24.8025C43.995 24.9612 44.1862 25.0425 44.3763 25.0425C44.5275 25.0425 44.6787 24.9925 44.8037 24.8875C45.0875 24.6525 45.1262 24.2313 44.8887 23.9475L42.675 21.25H44.6488L47.5737 24.8025C47.705 24.9612 47.8963 25.0425 48.0863 25.0425C48.2375 25.0425 48.3888 24.9925 48.5138 24.8875C48.7975 24.6525 48.8363 24.2313 48.5988 23.9475L46.3863 21.25H48.125C48.1963 21.2925 48.2612 21.2725 48.3262 21.2525L51.285 24.8025C51.4162 24.9612 51.6075 25.0425 51.7975 25.0425C51.9487 25.0425 52.1 24.9925 52.225 24.8875C52.5087 24.6525 52.5475 24.2313 52.31 23.9475L49.5412 20.625L52.31 17.3025C52.5462 17.0187 52.5075 16.5975 52.2237 16.3625ZM20 38.75C9.66125 38.75 1.25 30.3387 1.25 20C1.25 9.66125 9.66125 1.25 20 1.25C30.325 1.25 38.7237 9.6375 38.7475 20H34.9975C34.975 11.7062 28.2575 5 20 5C11.7288 5 5 11.7288 5 20C5 28.2712 11.7288 35 20 35C27.835 35 34.2762 28.96 34.935 21.25H38.685C38.0163 31.0287 29.9025 38.75 20 38.75ZM29.9975 20C29.975 14.4637 25.5 10 20 10C14.4862 10 10 14.4862 10 20C10 25.5138 14.4862 30 20 30C25.075 30 29.27 26.1963 29.9062 21.25H33.6838C33.03 28.27 27.145 33.75 20 33.75C12.4187 33.75 6.25 27.5812 6.25 20C6.25 12.4187 12.4187 6.25 20 6.25C27.5675 6.25 33.725 12.395 33.7475 20H29.9975ZM24.9963 20C24.9725 17.22 22.7437 15 20 15C17.2425 15 15 17.2425 15 20C15 22.7575 17.2425 25 20 25C22.3075 25 24.235 23.4212 24.8088 21.25H28.6438C28.015 25.505 24.3838 28.75 20 28.75C15.1763 28.75 11.25 24.8237 11.25 20C11.25 15.1763 15.1763 11.25 20 11.25C24.81 11.25 28.725 15.1525 28.7475 20H24.9963ZM20.625 21.25H23.5063C22.9775 22.7225 21.6112 23.75 20 23.75C17.9325 23.75 16.25 22.0675 16.25 20C16.25 17.9325 17.9325 16.25 20 16.25C22.0537 16.25 23.7225 17.91 23.7463 20H20.625C20.2563 19.9575 19.9575 20.2563 19.9575 20.625C19.9575 20.9937 20.2563 21.2925 20.625 21.25Z" fill="#FCB500"/>
</g>
<defs>
<clipPath id="clip0_143_3465">
<rect width="52.5" height="40" fill="white"/>
</clipPath>
</defs>
</svg>
