<svg width="40" height="40" viewBox="0 0 40 40" fill="none" xmlns="http://www.w3.org/2000/svg">
<path d="M14.8169 16.7642H13.5957V17.9853H14.8169V16.7642Z" fill="#FCB500"/>
<path d="M9.28109 16.7642H7.97852V17.9853H9.28109V16.7642Z" fill="#FCB500"/>
<path d="M11.0717 16.7642H9.85059V17.9853H11.0717V16.7642Z" fill="#FCB500"/>
<path d="M7.40805 16.7642H6.10547V17.9853H7.40805V16.7642Z" fill="#FCB500"/>
<path d="M18.562 16.7642H17.3408V17.9853H18.562V16.7642Z" fill="#FCB500"/>
<path d="M20.387 16.7478C20.2812 16.7584 20.1734 16.7638 20.0665 16.7638H19.2129V17.985H20.0665C20.2139 17.985 20.3627 17.9776 20.5087 17.963L20.387 16.7478Z" fill="#FCB500"/>
<path d="M21.8402 16.2188C21.5522 16.4156 21.2357 16.5617 20.8994 16.6533L21.22 17.8317C21.6882 17.7044 22.1287 17.5009 22.5294 17.227L21.8402 16.2188Z" fill="#FCB500"/>
<path d="M12.9448 16.7642H11.7236V17.9853H12.9448V16.7642Z" fill="#FCB500"/>
<path d="M2.82445 16.2878L2.17773 17.3235C2.58828 17.5799 3.03648 17.7649 3.50992 17.8735L3.78297 16.6834C3.44203 16.6052 3.11961 16.472 2.82445 16.2878Z" fill="#FCB500"/>
<path d="M16.6889 16.7642H15.4678V17.9853H16.6889V16.7642Z" fill="#FCB500"/>
<path d="M4.50176 16.7641C4.43395 16.764 4.3659 16.762 4.29926 16.7578L4.22363 17.9766C4.3152 17.9823 4.40879 17.9852 4.50168 17.9852H5.53559V16.7641H4.50176Z" fill="#FCB500"/>
<path d="M18.5614 23.1145H17.2588V24.3357H18.5614V23.1145Z" fill="#FCB500"/>
<path d="M14.8169 23.1145H13.5957V24.3357H14.8169V23.1145Z" fill="#FCB500"/>
<path d="M16.6893 23.1145H15.3867V24.3357H16.6893V23.1145Z" fill="#FCB500"/>
<path d="M20.3525 23.1011C20.2579 23.1096 20.1618 23.114 20.0668 23.114H19.1318V24.3352H20.0668C20.1985 24.3352 20.3317 24.3292 20.4628 24.3173L20.3525 23.1011Z" fill="#FCB500"/>
<path d="M9.19969 23.1145H7.97852V24.3357H9.19969V23.1145Z" fill="#FCB500"/>
<path d="M4.50203 23.114C4.42289 23.1134 4.34562 23.111 4.26773 23.1052L4.17578 24.3229C4.28328 24.331 4.39211 24.3351 4.49891 24.3351C4.50016 24.3351 4.50133 24.3351 4.50258 24.3351H5.455V23.1139H4.50203V23.114Z" fill="#FCB500"/>
<path d="M2.80668 22.6082L2.1377 23.6298C2.5452 23.8966 2.98996 24.0911 3.45988 24.2081L3.75473 23.0231C3.41824 22.9394 3.09918 22.7997 2.80668 22.6082Z" fill="#FCB500"/>
<path d="M11.0717 23.1145H9.85059V24.3357H11.0717V23.1145Z" fill="#FCB500"/>
<path d="M12.9448 23.1145H11.7236V24.3357H12.9448V23.1145Z" fill="#FCB500"/>
<path d="M7.32664 23.1145H6.10547V24.3357H7.32664V23.1145Z" fill="#FCB500"/>
<path d="M21.8059 22.5823C21.5162 22.7779 21.1991 22.9222 20.8633 23.0111L21.1757 24.1916C21.644 24.0677 22.0859 23.8667 22.4893 23.5945L21.8059 22.5823Z" fill="#FCB500"/>
<path d="M20.3858 29.2039C20.2807 29.2144 20.1733 29.2197 20.0665 29.2197H19.2129V30.4409H20.0665C20.2137 30.4409 20.362 30.4335 20.5072 30.419L20.3858 29.2039Z" fill="#FCB500"/>
<path d="M21.8385 28.6753C21.5504 28.8721 21.2338 29.0181 20.8975 29.1096L21.2179 30.288C21.686 30.1608 22.1265 29.9574 22.5275 29.6836L21.8385 28.6753Z" fill="#FCB500"/>
<path d="M9.28109 29.22H7.97852V30.4411H9.28109V29.22Z" fill="#FCB500"/>
<path d="M7.40805 29.22H6.10547V30.4411H7.40805V29.22Z" fill="#FCB500"/>
<path d="M4.50188 29.2196C4.43453 29.217 4.36656 29.2176 4.29906 29.2134L4.22266 30.4322C4.31445 30.4379 4.40734 30.4408 4.49836 30.4408C4.49977 30.4408 4.50109 30.4408 4.5025 30.4408H5.53633V29.2196H4.50188Z" fill="#FCB500"/>
<path d="M18.562 29.22H17.3408V30.4411H18.562V29.22Z" fill="#FCB500"/>
<path d="M11.0717 29.22H9.85059V30.4411H11.0717V29.22Z" fill="#FCB500"/>
<path d="M16.6889 29.22H15.4678V30.4411H16.6889V29.22Z" fill="#FCB500"/>
<path d="M14.8169 29.22H13.5957V30.4411H14.8169V29.22Z" fill="#FCB500"/>
<path d="M12.9448 29.22H11.7236V30.4411H12.9448V29.22Z" fill="#FCB500"/>
<path d="M2.82402 28.7427L2.17676 29.7781C2.5873 30.0348 3.03551 30.2201 3.50871 30.329L3.78222 29.1388C3.4416 29.0605 3.11918 28.9272 2.82402 28.7427Z" fill="#FCB500"/>
<path d="M7.32664 35.4888H6.10547V36.7099H7.32664V35.4888Z" fill="#FCB500"/>
<path d="M14.8169 35.4888H13.5957V36.7099H14.8169V35.4888Z" fill="#FCB500"/>
<path d="M18.562 35.4888H17.3408V36.7099H18.562V35.4888Z" fill="#FCB500"/>
<path d="M21.8272 34.9487C21.5387 35.145 21.2218 35.2905 20.8857 35.381L21.2032 36.5601C21.6714 36.434 22.1125 36.2316 22.5141 35.9583L21.8272 34.9487Z" fill="#FCB500"/>
<path d="M4.50301 35.4882C4.43074 35.4881 4.35816 35.4858 4.28746 35.481L4.20605 36.6994C4.30348 36.7059 4.40301 36.7092 4.50246 36.7093H5.45488V35.4881H4.50301V35.4882Z" fill="#FCB500"/>
<path d="M16.6889 35.4888H15.4678V36.7099H16.6889V35.4888Z" fill="#FCB500"/>
<path d="M11.0717 35.4888H9.85059V36.7099H11.0717V35.4888Z" fill="#FCB500"/>
<path d="M12.9448 35.4888H11.7236V36.7099H12.9448V35.4888Z" fill="#FCB500"/>
<path d="M20.3733 35.4736C20.2722 35.4834 20.1689 35.4885 20.0665 35.4885H19.2129V36.7096H20.0665C20.2082 36.7096 20.3512 36.7027 20.4912 36.6891L20.3733 35.4736Z" fill="#FCB500"/>
<path d="M9.19969 35.4888H7.97852V36.7099H9.19969V35.4888Z" fill="#FCB500"/>
<path d="M2.81734 35.0007L2.16211 36.0312C2.57156 36.2916 3.01859 36.4803 3.4907 36.592L3.7718 35.4035C3.43266 35.3234 3.11156 35.1878 2.81734 35.0007Z" fill="#FCB500"/>
<path d="M28.7822 11.863H27.5371V13.0842H28.7822V11.863Z" fill="#FCB500"/>
<path d="M26.9151 11.863H25.6699V13.0842H26.9151V11.863Z" fill="#FCB500"/>
<path d="M37.91 11.7944C37.7783 11.8401 37.6399 11.8632 37.4986 11.8632H36.876V13.0844H37.4986C37.7761 13.0844 38.0489 13.0386 38.3095 12.9484L37.91 11.7944Z" fill="#FCB500"/>
<path d="M36.2539 11.863H35.0088V13.0842H36.2539V11.863Z" fill="#FCB500"/>
<path d="M32.5186 11.863H31.2734V13.0842H32.5186V11.863Z" fill="#FCB500"/>
<path d="M30.6504 11.863H29.4053V13.0842H30.6504V11.863Z" fill="#FCB500"/>
<path d="M34.3857 11.863H33.1406V13.0842H34.3857V11.863Z" fill="#FCB500"/>
<path d="M32.5186 18.7117H31.2734V19.9328H32.5186V18.7117Z" fill="#FCB500"/>
<path d="M37.91 18.6426C37.7783 18.6882 37.6399 18.7112 37.4986 18.7112H36.876V19.9324H37.4986C37.7761 19.9324 38.0489 19.8866 38.3095 19.7965L37.91 18.6426Z" fill="#FCB500"/>
<path d="M36.2539 18.7117H35.0088V19.9328H36.2539V18.7117Z" fill="#FCB500"/>
<path d="M34.3857 18.7117H33.1406V19.9328H34.3857V18.7117Z" fill="#FCB500"/>
<path d="M26.9151 18.7117H25.6699V19.9328H26.9151V18.7117Z" fill="#FCB500"/>
<path d="M28.7822 18.7117H27.5371V19.9328H28.7822V18.7117Z" fill="#FCB500"/>
<path d="M30.6504 18.7117H29.4053V19.9328H30.6504V18.7117Z" fill="#FCB500"/>
<path d="M34.3857 25.5598H33.1406V26.781H34.3857V25.5598Z" fill="#FCB500"/>
<path d="M28.7822 25.5598H27.5371V26.781H28.7822V25.5598Z" fill="#FCB500"/>
<path d="M26.9151 25.5598H25.6699V26.781H26.9151V25.5598Z" fill="#FCB500"/>
<path d="M30.6504 25.5598H29.4053V26.781H30.6504V25.5598Z" fill="#FCB500"/>
<path d="M32.5186 25.5598H31.2734V26.781H32.5186V25.5598Z" fill="#FCB500"/>
<path d="M36.2539 25.5598H35.0088V26.781H36.2539V25.5598Z" fill="#FCB500"/>
<path d="M37.91 25.4907C37.7783 25.5363 37.6399 25.5595 37.4986 25.5595H36.876V26.7806H37.4986C37.7761 26.7806 38.0489 26.7349 38.3095 26.6447L37.91 25.4907Z" fill="#FCB500"/>
<path d="M30.6504 32.408H29.4053V33.6291H30.6504V32.408Z" fill="#FCB500"/>
<path d="M36.2539 32.408H35.0088V33.6291H36.2539V32.408Z" fill="#FCB500"/>
<path d="M37.91 32.3396C37.7783 32.3852 37.6399 32.4083 37.4986 32.4083H36.876V33.6295H37.4986C37.7761 33.6295 38.0489 33.5837 38.3095 33.4936L37.91 32.3396Z" fill="#FCB500"/>
<path d="M28.7822 32.408H27.5371V33.6291H28.7822V32.408Z" fill="#FCB500"/>
<path d="M26.9151 32.408H25.6699V33.6291H26.9151V32.408Z" fill="#FCB500"/>
<path d="M34.3857 32.408H33.1406V33.6291H34.3857V32.408Z" fill="#FCB500"/>
<path d="M32.5186 32.408H31.2734V33.6291H32.5186V32.408Z" fill="#FCB500"/>
<path d="M18.1984 8.7041H6.36937C5.34617 8.7041 4.51367 9.54402 4.51367 10.5765C4.51367 11.609 5.34617 12.4489 6.36937 12.4489H18.1984C19.2216 12.4489 20.0541 11.609 20.0541 10.5765C20.0541 9.54402 19.2216 8.7041 18.1984 8.7041ZM18.1984 11.2279H6.36937C6.02539 11.2279 5.73484 10.9296 5.73484 10.5766C5.73484 10.2236 6.02539 9.92535 6.36937 9.92535H18.1984C18.5424 9.92535 18.833 10.2236 18.833 10.5766C18.833 10.9296 18.5423 11.2279 18.1984 11.2279Z" fill="#FCB500"/>
<path d="M39.9771 5.00206C39.9769 3.63573 38.8652 2.52425 37.4988 2.52425H30.6385V0.0339355H26.915C25.8917 0.0339355 25.0593 0.866435 25.0593 1.88972C25.0593 1.89034 25.0594 1.89104 25.0594 1.89159H25.0593L25.0727 6.2155L4.50211 6.1805C3.34281 6.1805 2.24891 6.6512 1.42195 7.50604C0.606406 8.34886 0.157109 9.45237 0.156172 10.6135H0.156016L0 35.509C0 37.8834 2.10375 39.9661 4.50211 39.9661H20.0666C22.4559 39.9661 24.4744 37.949 24.4744 35.5598L24.4696 33.6293H25.0471V32.4082H24.4666L24.4527 26.781H25.0471V25.5598H24.4495L24.4356 19.9326H25.0471V18.7114H24.4327L24.4188 13.0842H25.0472V11.8631H24.4158L24.4126 10.5753H24.4116C24.4008 9.42823 23.9531 8.33972 23.1467 7.5062C23.1213 7.47995 23.0949 7.45526 23.0691 7.42972L37.4987 7.48112C37.958 7.48112 38.3884 7.35511 38.7576 7.13644L38.7604 10.9124L38.7208 10.9028C38.6552 11.1743 38.497 11.42 38.2756 11.5944L38.7614 12.2111L38.7656 17.762L38.7208 17.7511C38.6552 18.0227 38.497 18.2684 38.2756 18.4428L38.7667 19.0661L38.7709 24.6116L38.7208 24.5995C38.6552 24.871 38.497 25.1167 38.2756 25.2911L38.772 25.9212L38.7762 31.4612L38.7207 31.4478C38.6551 31.7193 38.497 31.9649 38.2755 32.1394L38.7771 32.7761L38.7787 34.7756C38.7787 35.4492 38.2165 35.9769 37.4987 35.9769H24.9932V37.1981H37.4988C38.9014 37.1981 40 36.134 40 34.7751L39.9771 5.00206ZM1.3582 13.6596C1.36148 13.6632 1.36469 13.6668 1.36797 13.6703H1.35813L1.3582 13.6596ZM23.2029 15.233L22.859 15.0587C22.702 15.3685 22.4948 15.6484 22.2431 15.8907L23.09 16.7705C23.1296 16.7323 23.1683 16.6932 23.2064 16.6537L23.2146 19.9777H23.1913C23.1913 20.3092 23.1398 20.6357 23.0384 20.9479L23.2171 21.006L23.2187 21.6261L22.8371 21.427C22.6759 21.7361 22.4655 22.0149 22.2118 22.2557L23.0526 23.1414C23.1109 23.086 23.167 23.0287 23.222 22.9704L23.2298 26.126H23.1913C23.1913 26.4517 23.1448 26.7477 23.053 27.0441L23.2323 27.0991L23.2337 27.7057L22.8584 27.5153C22.7012 27.825 22.4938 28.1049 22.2422 28.347L23.0888 29.2271C23.1396 29.1781 23.1889 29.1277 23.2372 29.0764L23.2454 32.3946H23.1914C23.1914 32.7202 23.1431 33.0253 23.048 33.3274L23.2478 33.3894L23.2493 33.9945L22.8508 33.7901C22.692 34.0996 22.4836 34.3791 22.2313 34.6208L23.0757 35.5028C23.1368 35.4444 23.1952 35.3839 23.2525 35.3222L23.253 35.561C23.2533 37.287 21.794 38.7449 20.0666 38.7449H4.50211C2.7543 38.7449 1.22117 37.2328 1.22117 35.5128L1.22297 35.2246C1.33648 35.3543 1.45758 35.4778 1.58664 35.594L2.40352 34.6863C2.14398 34.4527 1.92727 34.1798 1.75945 33.8752L1.22953 34.1671L1.23359 33.5208L1.54836 33.4124C1.43477 33.0855 1.37719 32.7205 1.37719 32.3948H1.2407L1.26188 29.0112C1.36727 29.1277 1.47867 29.2393 1.59711 29.3444L2.40781 28.431C2.14672 28.1993 1.92906 27.9282 1.7607 27.6252L1.26891 27.8983L1.27297 27.2446L1.54867 27.1478C1.43484 26.8221 1.37711 26.4517 1.37711 26.126H1.27992L1.3 22.9152C1.38531 23.0087 1.47461 23.0989 1.56828 23.1853L2.39617 22.2876C2.13891 22.0504 1.92406 21.7744 1.75742 21.4674L1.30766 21.7114L1.3118 21.0522L1.54773 20.9696C1.43461 20.6407 1.37719 20.3458 1.37719 19.9387H1.31875L1.33945 16.6408C1.42195 16.7272 1.5082 16.8104 1.5982 16.8902L2.40836 15.9764C2.14719 15.7448 1.92945 15.4738 1.76078 15.1707L1.34719 15.4007L1.35117 14.7615L1.54875 14.692C1.43609 14.3699 1.37852 14.0033 1.37734 13.6801C1.39234 13.696 1.40656 13.7125 1.4218 13.7283C2.24883 14.5832 3.34266 15.0539 4.50195 15.0539H20.0664C21.2257 15.0539 22.3196 14.5832 23.1466 13.7283C23.1616 13.7128 23.1756 13.6965 23.1905 13.6807C23.1883 13.9874 23.1427 14.2892 23.0534 14.578L23.2013 14.6238L23.2029 15.233ZM23.1915 10.6174C23.1915 12.3605 21.7605 13.8331 20.0666 13.8331H4.50211C2.8082 13.8331 1.37727 12.3604 1.37727 10.6174C1.37727 8.87432 2.80828 7.40167 4.50211 7.40167H15.2158L20.3915 7.42003C21.9395 7.59354 23.1915 8.98698 23.1915 10.6174ZM26.2804 1.88964C26.2805 1.53972 26.5651 1.25511 26.9149 1.25511H29.4173V2.52433H26.9149C26.5651 2.52433 26.2805 2.23972 26.2804 1.88987V1.88964ZM37.501 6.25979L26.2939 6.21987L26.2859 3.6355C26.4824 3.70659 26.6942 3.7455 26.915 3.7455H37.4988C38.192 3.7455 38.7559 4.3094 38.7559 5.00253C38.7559 5.69581 38.192 6.25979 37.501 6.25979Z" fill="#FCB500"/>
<path d="M4.4773 9.34837V8.1272C3.17473 8.1272 1.99902 9.23892 1.99902 10.6054C1.99902 11.972 3.17473 13.0837 4.4773 13.0837V11.8625C3.82605 11.8625 3.2202 11.2985 3.2202 10.6054C3.2202 9.9122 3.82605 9.34837 4.4773 9.34837Z" fill="#FCB500"/>
<path d="M20.0273 8.1272V9.34837C20.7601 9.34837 21.2845 9.91228 21.2845 10.6055C21.2845 11.2987 20.76 11.8626 20.0273 11.8626V13.0838C21.4113 13.0838 22.5056 11.972 22.5056 10.6055C22.5056 9.23892 21.4113 8.1272 20.0273 8.1272Z" fill="#FCB500"/>
</svg>
