<svg width="40" height="40" viewBox="0 0 40 40" fill="none" xmlns="http://www.w3.org/2000/svg">
<path d="M0.0425 20.835C0.485 31.4737 9.25375 40 20 40C30.7463 40 39.515 31.4737 39.9575 20.835C39.9813 20.7687 40 20.7 40 20.625C40 20.58 39.9837 20.5413 39.975 20.5C39.9787 20.3325 40 20.1688 40 20C40 8.9725 31.0275 0 20 0C8.9725 0 0 8.9725 0 20C0 20.1688 0.02125 20.3325 0.025 20.5C0.01625 20.5413 0 20.58 0 20.625C0 20.7 0.01875 20.7687 0.0425 20.835ZM31.1512 28.4275C29.5025 27.7375 27.7325 27.2038 25.8825 26.8388C26.08 25.0225 26.1963 23.1362 26.2325 21.2512H32.4575C32.3438 23.8187 31.8875 26.2425 31.1512 28.4275ZM33.7062 21.25H38.6862C38.4538 24.7575 37.2637 28.0037 35.3575 30.7238C34.4087 30.0575 33.3862 29.45 32.2863 28.9237C33.0925 26.5875 33.5887 23.995 33.7062 21.25ZM15.4862 27.8575C16.9587 27.6275 18.47 27.5 20 27.5C21.53 27.5 23.0413 27.6275 24.5125 27.8575C23.645 34.5262 21.75 38.75 20 38.75C18.25 38.75 16.355 34.5262 15.4862 27.8575ZM17.385 38.33C13.9462 37.2275 11.0375 33.9912 9.2825 29.6C10.84 28.9438 12.515 28.4312 14.27 28.0787C14.8438 32.4487 15.8925 36.2562 17.385 38.33ZM15.3425 13.3862C16.8638 13.6212 18.4237 13.75 20 13.75C21.5763 13.75 23.1362 13.6212 24.6575 13.3862C24.8725 15.4112 25 17.6213 25 20H15C15 17.6213 15.1275 15.4112 15.3425 13.3862ZM24.9813 21.25C24.9463 23.1562 24.8337 24.9513 24.6562 26.6138C23.1363 26.3787 21.5775 26.25 20 26.25C18.4225 26.25 16.8638 26.3787 15.3425 26.6138C15.1263 24.5813 15.0463 22.7925 15.0175 21.25H24.9813ZM25.7312 28.0787C27.4862 28.4312 29.16 28.9438 30.7188 29.6C28.9638 33.9912 26.055 37.2275 22.6163 38.33C24.1075 36.2562 25.1562 32.4487 25.7312 28.0787ZM26.25 20C26.25 17.705 26.1225 15.38 25.8825 13.1625C27.7325 12.7975 29.5025 12.2625 31.1512 11.5737C32.0062 14.11 32.5 16.9675 32.5 20H26.25ZM25.7312 11.9212C25.1562 7.55125 24.1087 3.7425 22.615 1.67C26.0537 2.7725 28.9625 6.00875 30.7175 10.4C29.16 11.0562 27.4862 11.57 25.7312 11.9212ZM24.5138 12.1425C23.0413 12.3725 21.53 12.5 20 12.5C18.47 12.5 16.9587 12.3725 15.4862 12.1425C16.355 5.47375 18.25 1.25 20 1.25C21.75 1.25 23.645 5.47375 24.5138 12.1425ZM14.2688 11.9212C12.5138 11.5687 10.84 11.0562 9.28125 10.4C11.0363 6.00875 13.945 2.7725 17.3837 1.67C15.8925 3.74375 14.8438 7.55125 14.2688 11.9212ZM14.1175 13.1625C13.8775 15.38 13.75 17.705 13.75 20H7.5C7.5 16.9675 7.99375 14.11 8.84875 11.5725C10.4975 12.2625 12.2675 12.7962 14.1175 13.1625ZM13.7675 21.25C13.8038 23.135 13.92 25.0213 14.1175 26.8388C12.2675 27.2038 10.4975 27.7388 8.84875 28.4275C8.1125 26.2425 7.65625 23.8188 7.5425 21.25H13.7675ZM7.7125 28.9237C6.6125 29.4513 5.59125 30.0575 4.6425 30.7238C2.73625 28.0037 1.54625 24.7587 1.31375 21.25H6.29375C6.41125 23.995 6.9075 26.5875 7.7125 28.9237ZM5.39125 31.725C6.2475 31.1262 7.1625 30.5725 8.15 30.0938C9.405 33.2 11.2113 35.7788 13.3825 37.5225C10.225 36.325 7.47125 34.3125 5.39125 31.725ZM26.6175 37.5213C28.79 35.7788 30.595 33.1987 31.85 30.0925C32.8375 30.5725 33.7525 31.125 34.6087 31.7237C32.5288 34.3125 29.775 36.325 26.6175 37.5213ZM33.75 20C33.75 16.7913 33.215 13.7662 32.2875 11.0763C33.3875 10.5487 34.41 9.9425 35.3587 9.27625C37.4888 12.3188 38.75 16.0125 38.75 20H33.75ZM34.61 8.275C33.7537 8.87375 32.8388 9.42625 31.8513 9.90625C30.5963 6.8 28.79 4.22 26.6187 2.4775C29.775 3.675 32.5288 5.6875 34.61 8.275ZM13.3825 2.47875C11.21 4.22125 9.405 6.80125 8.15 9.9075C7.16125 9.4275 6.2475 8.87375 5.39125 8.275C7.47125 5.6875 10.225 3.675 13.3825 2.47875ZM4.6425 9.27625C5.59 9.9425 6.6125 10.5487 7.7125 11.0763C6.785 13.7662 6.25 16.7913 6.25 20H1.25C1.25 16.0125 2.51125 12.3188 4.6425 9.27625Z" fill="#FCB500"/>
</svg>
