<svg width="44" height="22" viewBox="0 0 44 22" fill="none" xmlns="http://www.w3.org/2000/svg">
<rect width="44" height="22" fill="#FCB500"/>
<path d="M15.3421 16H14.0227L9.01199 8.33008V16H7.69266V6.04688H9.01199L14.0364 13.751V6.04688H15.3421V16ZM23.5791 11.3994H19.2656V14.9268H24.2764V16H17.9531V6.04688H24.208V7.12695H19.2656V10.3262H23.5791V11.3994ZM28.3366 12.8623L28.528 14.1748L28.8083 12.9922L30.7771 6.04688H31.8845L33.8054 12.9922L34.0788 14.1953L34.2907 12.8555L35.8357 6.04688H37.155L34.7419 16H33.5456L31.4948 8.74707L31.3376 7.98828L31.1804 8.74707L29.0544 16H27.8581L25.4519 6.04688H26.7644L28.3366 12.8623Z" fill="white"/>
</svg>
