<svg width="44" height="22" viewBox="0 0 44 22" fill="none" xmlns="http://www.w3.org/2000/svg">
<rect width="44" height="22" fill="#F33030"/>
<path d="M10.246 11.2881H6.91008V10.2559H10.246V11.2881ZM16.9723 11.6572H18.3532V12.6895H16.9723V15H15.7008V12.6895H11.1686V11.9443L15.6256 5.04688H16.9723V11.6572ZM12.6041 11.6572H15.7008V6.77637L15.5504 7.0498L12.6041 11.6572ZM26.016 10.7549C26.016 12.236 25.763 13.3366 25.2572 14.0566C24.7513 14.7767 23.9606 15.1367 22.8851 15.1367C21.8233 15.1367 21.0371 14.7858 20.5267 14.084C20.0163 13.3776 19.752 12.3249 19.7337 10.9258V9.2373C19.7337 7.77441 19.9867 6.6875 20.4925 5.97656C20.9984 5.26562 21.7914 4.91016 22.8714 4.91016C23.9424 4.91016 24.7308 5.25423 25.2367 5.94238C25.7425 6.62598 26.0023 7.68327 26.016 9.11426V10.7549ZM24.7513 9.02539C24.7513 7.95443 24.6009 7.17513 24.3002 6.6875C23.9994 6.19531 23.5231 5.94922 22.8714 5.94922C22.2243 5.94922 21.7526 6.19303 21.4564 6.68066C21.1602 7.16829 21.0075 7.91797 20.9984 8.92969V10.9531C20.9984 12.0286 21.1533 12.8239 21.4632 13.3389C21.7777 13.8493 22.2517 14.1045 22.8851 14.1045C23.5095 14.1045 23.972 13.863 24.2728 13.3799C24.5782 12.8968 24.7377 12.1357 24.7513 11.0967V9.02539ZM27.8067 6.96094C27.8067 6.36393 27.9958 5.87174 28.3741 5.48438C28.7569 5.09701 29.2468 4.90332 29.8438 4.90332C30.4499 4.90332 30.9399 5.09928 31.3136 5.49121C31.6918 5.87858 31.8809 6.38216 31.8809 7.00195V7.4873C31.8809 8.08887 31.6895 8.58105 31.3067 8.96387C30.9285 9.34212 30.4454 9.53125 29.8575 9.53125C29.2651 9.53125 28.7751 9.34212 28.3878 8.96387C28.0004 8.58105 27.8067 8.07292 27.8067 7.43945V6.96094ZM28.7501 7.4873C28.7501 7.84277 28.8503 8.13672 29.0509 8.36914C29.2514 8.59701 29.5203 8.71094 29.8575 8.71094C30.1811 8.71094 30.4408 8.59928 30.6368 8.37598C30.8373 8.15267 30.9376 7.84733 30.9376 7.45996V6.96094C30.9376 6.60547 30.8396 6.31152 30.6436 6.0791C30.4477 5.84668 30.1811 5.73047 29.8438 5.73047C29.5066 5.73047 29.24 5.84668 29.044 6.0791C28.8481 6.31152 28.7501 6.61458 28.7501 6.98828V7.4873ZM32.6534 12.5596C32.6534 11.9626 32.8425 11.4727 33.2208 11.0898C33.6036 10.7025 34.0935 10.5088 34.6905 10.5088C35.2875 10.5088 35.7774 10.7002 36.1602 11.083C36.543 11.4658 36.7345 11.974 36.7345 12.6074V13.0928C36.7345 13.6898 36.543 14.182 36.1602 14.5693C35.782 14.9521 35.2966 15.1436 34.7042 15.1436C34.1117 15.1436 33.6218 14.9544 33.2345 14.5762C32.8471 14.1934 32.6534 13.6852 32.6534 13.0518V12.5596ZM33.5968 13.0928C33.5968 13.4528 33.697 13.749 33.8975 13.9814C34.0981 14.2093 34.3669 14.3232 34.7042 14.3232C35.0323 14.3232 35.2943 14.2116 35.4903 13.9883C35.6863 13.7604 35.7843 13.4528 35.7843 13.0654V12.5596C35.7843 12.1995 35.684 11.9056 35.4835 11.6777C35.2875 11.4499 35.0232 11.3359 34.6905 11.3359C34.3669 11.3359 34.1026 11.4499 33.8975 11.6777C33.697 11.901 33.5968 12.2041 33.5968 12.5869V13.0928ZM30.1446 14.248L29.4268 13.7969L34.2872 6.01758L35.005 6.46875L30.1446 14.248Z" fill="white"/>
</svg>
