<svg width="660" height="582" viewBox="0 0 660 582" fill="none" xmlns="http://www.w3.org/2000/svg">
<rect x="660" y="7.29297" width="1" height="932.381" transform="rotate(135 660 7.29297)" fill="url(#paint0_linear_16_625)"/>
<rect x="660" y="17.293" width="1" height="932.381" transform="rotate(135 660 17.293)" fill="url(#paint1_linear_16_625)"/>
<rect x="660" y="27.293" width="1" height="932.381" transform="rotate(135 660 27.293)" fill="url(#paint2_linear_16_625)"/>
<rect x="660" y="37.293" width="1" height="932.381" transform="rotate(135 660 37.293)" fill="url(#paint3_linear_16_625)"/>
<rect x="660" y="47.293" width="1" height="932.381" transform="rotate(135 660 47.293)" fill="url(#paint4_linear_16_625)"/>
<rect x="660" y="57.293" width="1" height="932.381" transform="rotate(135 660 57.293)" fill="url(#paint5_linear_16_625)"/>
<rect x="660" y="67.293" width="1" height="932.381" transform="rotate(135 660 67.293)" fill="url(#paint6_linear_16_625)"/>
<rect x="660" y="77.293" width="1" height="932.381" transform="rotate(135 660 77.293)" fill="url(#paint7_linear_16_625)"/>
<rect x="660" y="87.293" width="1" height="932.381" transform="rotate(135 660 87.293)" fill="url(#paint8_linear_16_625)"/>
<rect x="660" y="97.293" width="1" height="932.381" transform="rotate(135 660 97.293)" fill="url(#paint9_linear_16_625)"/>
<rect x="660" y="107.293" width="1" height="932.381" transform="rotate(135 660 107.293)" fill="url(#paint10_linear_16_625)"/>
<rect x="660" y="117.293" width="1" height="932.381" transform="rotate(135 660 117.293)" fill="url(#paint11_linear_16_625)"/>
<rect x="660" y="127.293" width="1" height="932.381" transform="rotate(135 660 127.293)" fill="url(#paint12_linear_16_625)"/>
<rect x="660" y="137.293" width="1" height="932.381" transform="rotate(135 660 137.293)" fill="url(#paint13_linear_16_625)"/>
<rect x="660" y="147.293" width="1" height="932.381" transform="rotate(135 660 147.293)" fill="url(#paint14_linear_16_625)"/>
<rect x="660" y="157.293" width="1" height="932.381" transform="rotate(135 660 157.293)" fill="url(#paint15_linear_16_625)"/>
<rect x="660" y="167.293" width="1" height="932.381" transform="rotate(135 660 167.293)" fill="url(#paint16_linear_16_625)"/>
<rect x="660" y="177.293" width="1" height="932.381" transform="rotate(135 660 177.293)" fill="url(#paint17_linear_16_625)"/>
<rect x="660" y="187.293" width="1" height="932.381" transform="rotate(135 660 187.293)" fill="url(#paint18_linear_16_625)"/>
<rect x="660" y="197.293" width="1" height="932.381" transform="rotate(135 660 197.293)" fill="url(#paint19_linear_16_625)"/>
<rect x="660" y="207.293" width="1" height="932.381" transform="rotate(135 660 207.293)" fill="url(#paint20_linear_16_625)"/>
<rect x="660" y="217.293" width="1" height="932.381" transform="rotate(135 660 217.293)" fill="url(#paint21_linear_16_625)"/>
<rect x="660" y="227.293" width="1" height="932.381" transform="rotate(135 660 227.293)" fill="url(#paint22_linear_16_625)"/>
<rect x="660" y="237.293" width="1" height="932.381" transform="rotate(135 660 237.293)" fill="url(#paint23_linear_16_625)"/>
<rect x="660" y="247.293" width="1" height="932.381" transform="rotate(135 660 247.293)" fill="url(#paint24_linear_16_625)"/>
<rect x="660" y="257.293" width="1" height="932.381" transform="rotate(135 660 257.293)" fill="url(#paint25_linear_16_625)"/>
<rect x="660" y="267.293" width="1" height="932.381" transform="rotate(135 660 267.293)" fill="url(#paint26_linear_16_625)"/>
<rect x="660" y="277.293" width="1" height="932.381" transform="rotate(135 660 277.293)" fill="url(#paint27_linear_16_625)"/>
<rect x="660" y="287.293" width="1" height="932.381" transform="rotate(135 660 287.293)" fill="url(#paint28_linear_16_625)"/>
<rect x="660" y="297.293" width="1" height="932.381" transform="rotate(135 660 297.293)" fill="url(#paint29_linear_16_625)"/>
<rect x="660" y="307.293" width="1" height="932.381" transform="rotate(135 660 307.293)" fill="url(#paint30_linear_16_625)"/>
<rect x="660" y="317.293" width="1" height="932.381" transform="rotate(135 660 317.293)" fill="url(#paint31_linear_16_625)"/>
<rect x="660" y="327.293" width="1" height="932.381" transform="rotate(135 660 327.293)" fill="url(#paint32_linear_16_625)"/>
<rect x="660" y="337.293" width="1" height="932.381" transform="rotate(135 660 337.293)" fill="url(#paint33_linear_16_625)"/>
<rect x="660" y="347.293" width="1" height="932.381" transform="rotate(135 660 347.293)" fill="url(#paint34_linear_16_625)"/>
<rect x="660" y="357.293" width="1" height="932.381" transform="rotate(135 660 357.293)" fill="url(#paint35_linear_16_625)"/>
<rect x="660" y="367.293" width="1" height="932.381" transform="rotate(135 660 367.293)" fill="url(#paint36_linear_16_625)"/>
<rect x="660" y="377.293" width="1" height="932.381" transform="rotate(135 660 377.293)" fill="url(#paint37_linear_16_625)"/>
<rect x="660" y="387.293" width="1" height="932.381" transform="rotate(135 660 387.293)" fill="url(#paint38_linear_16_625)"/>
<rect x="660" y="397.293" width="1" height="932.381" transform="rotate(135 660 397.293)" fill="url(#paint39_linear_16_625)"/>
<rect x="660" y="407.293" width="1" height="932.381" transform="rotate(135 660 407.293)" fill="url(#paint40_linear_16_625)"/>
<rect x="660" y="417.293" width="1" height="932.381" transform="rotate(135 660 417.293)" fill="url(#paint41_linear_16_625)"/>
<rect x="660" y="427.293" width="1" height="932.381" transform="rotate(135 660 427.293)" fill="url(#paint42_linear_16_625)"/>
<rect x="660" y="437.293" width="1" height="932.381" transform="rotate(135 660 437.293)" fill="url(#paint43_linear_16_625)"/>
<rect x="660" y="447.293" width="1" height="932.381" transform="rotate(135 660 447.293)" fill="url(#paint44_linear_16_625)"/>
<rect x="660" y="457.293" width="1" height="932.381" transform="rotate(135 660 457.293)" fill="url(#paint45_linear_16_625)"/>
<rect x="660" y="467.293" width="1" height="932.381" transform="rotate(135 660 467.293)" fill="url(#paint46_linear_16_625)"/>
<rect x="660" y="477.293" width="1" height="932.381" transform="rotate(135 660 477.293)" fill="url(#paint47_linear_16_625)"/>
<rect x="660" y="487.293" width="1" height="932.381" transform="rotate(135 660 487.293)" fill="url(#paint48_linear_16_625)"/>
<rect x="660" y="497.293" width="1" height="932.381" transform="rotate(135 660 497.293)" fill="url(#paint49_linear_16_625)"/>
<rect x="660" y="507.293" width="1" height="932.381" transform="rotate(135 660 507.293)" fill="url(#paint50_linear_16_625)"/>
<rect x="660" y="517.293" width="1" height="932.381" transform="rotate(135 660 517.293)" fill="url(#paint51_linear_16_625)"/>
<rect x="660" y="527.293" width="1" height="932.381" transform="rotate(135 660 527.293)" fill="url(#paint52_linear_16_625)"/>
<rect x="660" y="537.293" width="1" height="932.381" transform="rotate(135 660 537.293)" fill="url(#paint53_linear_16_625)"/>
<rect x="660" y="547.293" width="1" height="932.381" transform="rotate(135 660 547.293)" fill="url(#paint54_linear_16_625)"/>
<rect x="660" y="557.293" width="1" height="932.381" transform="rotate(135 660 557.293)" fill="url(#paint55_linear_16_625)"/>
<rect x="660" y="567.293" width="1" height="932.381" transform="rotate(135 660 567.293)" fill="url(#paint56_linear_16_625)"/>
<rect x="660" y="577.293" width="1" height="932.381" transform="rotate(135 660 577.293)" fill="url(#paint57_linear_16_625)"/>
<rect x="660" y="587.293" width="1" height="932.381" transform="rotate(135 660 587.293)" fill="url(#paint58_linear_16_625)"/>
<rect x="660" y="597.293" width="1" height="932.381" transform="rotate(135 660 597.293)" fill="url(#paint59_linear_16_625)"/>
<rect x="660" y="607.293" width="1" height="932.381" transform="rotate(135 660 607.293)" fill="url(#paint60_linear_16_625)"/>
<rect x="660" y="617.293" width="1" height="932.381" transform="rotate(135 660 617.293)" fill="url(#paint61_linear_16_625)"/>
<rect x="660" y="627.293" width="1" height="932.381" transform="rotate(135 660 627.293)" fill="url(#paint62_linear_16_625)"/>
<rect x="660" y="637.293" width="1" height="932.381" transform="rotate(135 660 637.293)" fill="url(#paint63_linear_16_625)"/>
<rect x="660" y="647.293" width="1" height="932.381" transform="rotate(135 660 647.293)" fill="url(#paint64_linear_16_625)"/>
<rect x="660" y="657.293" width="1" height="932.381" transform="rotate(135 660 657.293)" fill="url(#paint65_linear_16_625)"/>
<rect x="660" y="667.293" width="1" height="932.381" transform="rotate(135 660 667.293)" fill="url(#paint66_linear_16_625)"/>
<rect x="660" y="677.293" width="1" height="932.381" transform="rotate(135 660 677.293)" fill="url(#paint67_linear_16_625)"/>
<rect x="660" y="687.293" width="1" height="932.381" transform="rotate(135 660 687.293)" fill="url(#paint68_linear_16_625)"/>
<rect x="660" y="697.293" width="1" height="932.381" transform="rotate(135 660 697.293)" fill="url(#paint69_linear_16_625)"/>
<rect x="660" y="707.293" width="1" height="932.381" transform="rotate(135 660 707.293)" fill="url(#paint70_linear_16_625)"/>
<rect x="660" y="717.293" width="1" height="932.381" transform="rotate(135 660 717.293)" fill="url(#paint71_linear_16_625)"/>
<rect x="660" y="727.293" width="1" height="932.381" transform="rotate(135 660 727.293)" fill="url(#paint72_linear_16_625)"/>
<rect x="660" y="737.293" width="1" height="932.381" transform="rotate(135 660 737.293)" fill="url(#paint73_linear_16_625)"/>
<rect x="660" y="747.293" width="1" height="932.381" transform="rotate(135 660 747.293)" fill="url(#paint74_linear_16_625)"/>
<rect x="660" y="757.293" width="1" height="932.381" transform="rotate(135 660 757.293)" fill="url(#paint75_linear_16_625)"/>
<rect x="660" y="767.293" width="1" height="932.381" transform="rotate(135 660 767.293)" fill="url(#paint76_linear_16_625)"/>
<rect x="660" y="777.293" width="1" height="932.381" transform="rotate(135 660 777.293)" fill="url(#paint77_linear_16_625)"/>
<rect x="660" y="787.293" width="1" height="932.381" transform="rotate(135 660 787.293)" fill="url(#paint78_linear_16_625)"/>
<rect x="660" y="797.293" width="1" height="932.381" transform="rotate(135 660 797.293)" fill="url(#paint79_linear_16_625)"/>
<rect x="660" y="807.293" width="1" height="932.381" transform="rotate(135 660 807.293)" fill="url(#paint80_linear_16_625)"/>
<rect x="660" y="817.293" width="1" height="932.381" transform="rotate(135 660 817.293)" fill="url(#paint81_linear_16_625)"/>
<rect x="660" y="827.293" width="1" height="932.381" transform="rotate(135 660 827.293)" fill="url(#paint82_linear_16_625)"/>
<rect x="660" y="837.293" width="1" height="932.381" transform="rotate(135 660 837.293)" fill="url(#paint83_linear_16_625)"/>
<rect x="660" y="847.293" width="1" height="932.381" transform="rotate(135 660 847.293)" fill="url(#paint84_linear_16_625)"/>
<rect x="660" y="857.293" width="1" height="932.381" transform="rotate(135 660 857.293)" fill="url(#paint85_linear_16_625)"/>
<rect x="660" y="867.293" width="1" height="932.381" transform="rotate(135 660 867.293)" fill="url(#paint86_linear_16_625)"/>
<rect x="660" y="877.293" width="1" height="932.381" transform="rotate(135 660 877.293)" fill="url(#paint87_linear_16_625)"/>
<rect x="660" y="887.293" width="1" height="932.381" transform="rotate(135 660 887.293)" fill="url(#paint88_linear_16_625)"/>
<rect x="660" y="897.293" width="1" height="932.381" transform="rotate(135 660 897.293)" fill="url(#paint89_linear_16_625)"/>
<rect x="660" y="907.293" width="1" height="932.381" transform="rotate(135 660 907.293)" fill="url(#paint90_linear_16_625)"/>
<rect x="660" y="917.293" width="1" height="932.381" transform="rotate(135 660 917.293)" fill="url(#paint91_linear_16_625)"/>
<rect x="660" y="927.293" width="1" height="932.381" transform="rotate(135 660 927.293)" fill="url(#paint92_linear_16_625)"/>
<rect x="660" y="937.293" width="1" height="932.381" transform="rotate(135 660 937.293)" fill="url(#paint93_linear_16_625)"/>
<rect x="660" y="947.293" width="1" height="932.381" transform="rotate(135 660 947.293)" fill="url(#paint94_linear_16_625)"/>
<rect x="660" y="957.293" width="1" height="932.381" transform="rotate(135 660 957.293)" fill="url(#paint95_linear_16_625)"/>
<rect x="660" y="967.293" width="1" height="932.381" transform="rotate(135 660 967.293)" fill="url(#paint96_linear_16_625)"/>
<rect x="660" y="977.293" width="1" height="932.381" transform="rotate(135 660 977.293)" fill="url(#paint97_linear_16_625)"/>
<rect x="660" y="987.293" width="1" height="932.381" transform="rotate(135 660 987.293)" fill="url(#paint98_linear_16_625)"/>
<rect x="660" y="997.293" width="1" height="932.381" transform="rotate(135 660 997.293)" fill="url(#paint99_linear_16_625)"/>
<rect x="660" y="1007.29" width="1" height="932.381" transform="rotate(135 660 1007.29)" fill="url(#paint100_linear_16_625)"/>
<rect x="660" y="1017.29" width="1" height="932.381" transform="rotate(135 660 1017.29)" fill="url(#paint101_linear_16_625)"/>
<rect x="660" y="1027.29" width="1" height="932.381" transform="rotate(135 660 1027.29)" fill="url(#paint102_linear_16_625)"/>
<rect x="660" y="1037.29" width="1" height="932.381" transform="rotate(135 660 1037.29)" fill="url(#paint103_linear_16_625)"/>
<rect x="660" y="1047.29" width="1" height="932.381" transform="rotate(135 660 1047.29)" fill="url(#paint104_linear_16_625)"/>
<rect x="660" y="1057.29" width="1" height="932.381" transform="rotate(135 660 1057.29)" fill="url(#paint105_linear_16_625)"/>
<rect x="660" y="1067.29" width="1" height="932.381" transform="rotate(135 660 1067.29)" fill="url(#paint106_linear_16_625)"/>
<rect x="660" y="1077.29" width="1" height="932.381" transform="rotate(135 660 1077.29)" fill="url(#paint107_linear_16_625)"/>
<rect x="660" y="1087.29" width="1" height="932.381" transform="rotate(135 660 1087.29)" fill="url(#paint108_linear_16_625)"/>
<rect x="660" y="1097.29" width="1" height="932.381" transform="rotate(135 660 1097.29)" fill="url(#paint109_linear_16_625)"/>
<rect x="660" y="1107.29" width="1" height="932.381" transform="rotate(135 660 1107.29)" fill="url(#paint110_linear_16_625)"/>
<rect x="660" y="1117.29" width="1" height="932.381" transform="rotate(135 660 1117.29)" fill="url(#paint111_linear_16_625)"/>
<rect x="660" y="1127.29" width="1" height="932.381" transform="rotate(135 660 1127.29)" fill="url(#paint112_linear_16_625)"/>
<rect x="660" y="1137.29" width="1" height="932.381" transform="rotate(135 660 1137.29)" fill="url(#paint113_linear_16_625)"/>
<rect x="660" y="1147.29" width="1" height="932.381" transform="rotate(135 660 1147.29)" fill="url(#paint114_linear_16_625)"/>
<rect x="660" y="1157.29" width="1" height="932.381" transform="rotate(135 660 1157.29)" fill="url(#paint115_linear_16_625)"/>
<defs>
<linearGradient id="paint0_linear_16_625" x1="660.5" y1="7.29297" x2="660.5" y2="939.674" gradientUnits="userSpaceOnUse">
<stop stop-color="#1A191D" stop-opacity="0"/>
<stop offset="1" stop-color="#1A191D"/>
</linearGradient>
<linearGradient id="paint1_linear_16_625" x1="660.5" y1="17.293" x2="660.5" y2="949.674" gradientUnits="userSpaceOnUse">
<stop stop-color="#1A191D" stop-opacity="0"/>
<stop offset="1" stop-color="#1A191D"/>
</linearGradient>
<linearGradient id="paint2_linear_16_625" x1="660.5" y1="27.293" x2="660.5" y2="959.674" gradientUnits="userSpaceOnUse">
<stop stop-color="#1A191D" stop-opacity="0"/>
<stop offset="1" stop-color="#1A191D"/>
</linearGradient>
<linearGradient id="paint3_linear_16_625" x1="660.5" y1="37.293" x2="660.5" y2="969.674" gradientUnits="userSpaceOnUse">
<stop stop-color="#1A191D" stop-opacity="0"/>
<stop offset="1" stop-color="#1A191D"/>
</linearGradient>
<linearGradient id="paint4_linear_16_625" x1="660.5" y1="47.293" x2="660.5" y2="979.674" gradientUnits="userSpaceOnUse">
<stop stop-color="#1A191D" stop-opacity="0"/>
<stop offset="1" stop-color="#1A191D"/>
</linearGradient>
<linearGradient id="paint5_linear_16_625" x1="660.5" y1="57.293" x2="660.5" y2="989.674" gradientUnits="userSpaceOnUse">
<stop stop-color="#1A191D" stop-opacity="0"/>
<stop offset="1" stop-color="#1A191D"/>
</linearGradient>
<linearGradient id="paint6_linear_16_625" x1="660.5" y1="67.293" x2="660.5" y2="999.674" gradientUnits="userSpaceOnUse">
<stop stop-color="#1A191D" stop-opacity="0"/>
<stop offset="1" stop-color="#1A191D"/>
</linearGradient>
<linearGradient id="paint7_linear_16_625" x1="660.5" y1="77.293" x2="660.5" y2="1009.67" gradientUnits="userSpaceOnUse">
<stop stop-color="#1A191D" stop-opacity="0"/>
<stop offset="1" stop-color="#1A191D"/>
</linearGradient>
<linearGradient id="paint8_linear_16_625" x1="660.5" y1="87.293" x2="660.5" y2="1019.67" gradientUnits="userSpaceOnUse">
<stop stop-color="#1A191D" stop-opacity="0"/>
<stop offset="1" stop-color="#1A191D"/>
</linearGradient>
<linearGradient id="paint9_linear_16_625" x1="660.5" y1="97.293" x2="660.5" y2="1029.67" gradientUnits="userSpaceOnUse">
<stop stop-color="#1A191D" stop-opacity="0"/>
<stop offset="1" stop-color="#1A191D"/>
</linearGradient>
<linearGradient id="paint10_linear_16_625" x1="660.5" y1="107.293" x2="660.5" y2="1039.67" gradientUnits="userSpaceOnUse">
<stop stop-color="#1A191D" stop-opacity="0"/>
<stop offset="1" stop-color="#1A191D"/>
</linearGradient>
<linearGradient id="paint11_linear_16_625" x1="660.5" y1="117.293" x2="660.5" y2="1049.67" gradientUnits="userSpaceOnUse">
<stop stop-color="#1A191D" stop-opacity="0"/>
<stop offset="1" stop-color="#1A191D"/>
</linearGradient>
<linearGradient id="paint12_linear_16_625" x1="660.5" y1="127.293" x2="660.5" y2="1059.67" gradientUnits="userSpaceOnUse">
<stop stop-color="#1A191D" stop-opacity="0"/>
<stop offset="1" stop-color="#1A191D"/>
</linearGradient>
<linearGradient id="paint13_linear_16_625" x1="660.5" y1="137.293" x2="660.5" y2="1069.67" gradientUnits="userSpaceOnUse">
<stop stop-color="#1A191D" stop-opacity="0"/>
<stop offset="1" stop-color="#1A191D"/>
</linearGradient>
<linearGradient id="paint14_linear_16_625" x1="660.5" y1="147.293" x2="660.5" y2="1079.67" gradientUnits="userSpaceOnUse">
<stop stop-color="#1A191D" stop-opacity="0"/>
<stop offset="1" stop-color="#1A191D"/>
</linearGradient>
<linearGradient id="paint15_linear_16_625" x1="660.5" y1="157.293" x2="660.5" y2="1089.67" gradientUnits="userSpaceOnUse">
<stop stop-color="#1A191D" stop-opacity="0"/>
<stop offset="1" stop-color="#1A191D"/>
</linearGradient>
<linearGradient id="paint16_linear_16_625" x1="660.5" y1="167.293" x2="660.5" y2="1099.67" gradientUnits="userSpaceOnUse">
<stop stop-color="#1A191D" stop-opacity="0"/>
<stop offset="1" stop-color="#1A191D"/>
</linearGradient>
<linearGradient id="paint17_linear_16_625" x1="660.5" y1="177.293" x2="660.5" y2="1109.67" gradientUnits="userSpaceOnUse">
<stop stop-color="#1A191D" stop-opacity="0"/>
<stop offset="1" stop-color="#1A191D"/>
</linearGradient>
<linearGradient id="paint18_linear_16_625" x1="660.5" y1="187.293" x2="660.5" y2="1119.67" gradientUnits="userSpaceOnUse">
<stop stop-color="#1A191D" stop-opacity="0"/>
<stop offset="1" stop-color="#1A191D"/>
</linearGradient>
<linearGradient id="paint19_linear_16_625" x1="660.5" y1="197.293" x2="660.5" y2="1129.67" gradientUnits="userSpaceOnUse">
<stop stop-color="#1A191D" stop-opacity="0"/>
<stop offset="1" stop-color="#1A191D"/>
</linearGradient>
<linearGradient id="paint20_linear_16_625" x1="660.5" y1="207.293" x2="660.5" y2="1139.67" gradientUnits="userSpaceOnUse">
<stop stop-color="#1A191D" stop-opacity="0"/>
<stop offset="1" stop-color="#1A191D"/>
</linearGradient>
<linearGradient id="paint21_linear_16_625" x1="660.5" y1="217.293" x2="660.5" y2="1149.67" gradientUnits="userSpaceOnUse">
<stop stop-color="#1A191D" stop-opacity="0"/>
<stop offset="1" stop-color="#1A191D"/>
</linearGradient>
<linearGradient id="paint22_linear_16_625" x1="660.5" y1="227.293" x2="660.5" y2="1159.67" gradientUnits="userSpaceOnUse">
<stop stop-color="#1A191D" stop-opacity="0"/>
<stop offset="1" stop-color="#1A191D"/>
</linearGradient>
<linearGradient id="paint23_linear_16_625" x1="660.5" y1="237.293" x2="660.5" y2="1169.67" gradientUnits="userSpaceOnUse">
<stop stop-color="#1A191D" stop-opacity="0"/>
<stop offset="1" stop-color="#1A191D"/>
</linearGradient>
<linearGradient id="paint24_linear_16_625" x1="660.5" y1="247.293" x2="660.5" y2="1179.67" gradientUnits="userSpaceOnUse">
<stop stop-color="#1A191D" stop-opacity="0"/>
<stop offset="1" stop-color="#1A191D"/>
</linearGradient>
<linearGradient id="paint25_linear_16_625" x1="660.5" y1="257.293" x2="660.5" y2="1189.67" gradientUnits="userSpaceOnUse">
<stop stop-color="#1A191D" stop-opacity="0"/>
<stop offset="1" stop-color="#1A191D"/>
</linearGradient>
<linearGradient id="paint26_linear_16_625" x1="660.5" y1="267.293" x2="660.5" y2="1199.67" gradientUnits="userSpaceOnUse">
<stop stop-color="#1A191D" stop-opacity="0"/>
<stop offset="1" stop-color="#1A191D"/>
</linearGradient>
<linearGradient id="paint27_linear_16_625" x1="660.5" y1="277.293" x2="660.5" y2="1209.67" gradientUnits="userSpaceOnUse">
<stop stop-color="#1A191D" stop-opacity="0"/>
<stop offset="1" stop-color="#1A191D"/>
</linearGradient>
<linearGradient id="paint28_linear_16_625" x1="660.5" y1="287.293" x2="660.5" y2="1219.67" gradientUnits="userSpaceOnUse">
<stop stop-color="#1A191D" stop-opacity="0"/>
<stop offset="1" stop-color="#1A191D"/>
</linearGradient>
<linearGradient id="paint29_linear_16_625" x1="660.5" y1="297.293" x2="660.5" y2="1229.67" gradientUnits="userSpaceOnUse">
<stop stop-color="#1A191D" stop-opacity="0"/>
<stop offset="1" stop-color="#1A191D"/>
</linearGradient>
<linearGradient id="paint30_linear_16_625" x1="660.5" y1="307.293" x2="660.5" y2="1239.67" gradientUnits="userSpaceOnUse">
<stop stop-color="#1A191D" stop-opacity="0"/>
<stop offset="1" stop-color="#1A191D"/>
</linearGradient>
<linearGradient id="paint31_linear_16_625" x1="660.5" y1="317.293" x2="660.5" y2="1249.67" gradientUnits="userSpaceOnUse">
<stop stop-color="#1A191D" stop-opacity="0"/>
<stop offset="1" stop-color="#1A191D"/>
</linearGradient>
<linearGradient id="paint32_linear_16_625" x1="660.5" y1="327.293" x2="660.5" y2="1259.67" gradientUnits="userSpaceOnUse">
<stop stop-color="#1A191D" stop-opacity="0"/>
<stop offset="1" stop-color="#1A191D"/>
</linearGradient>
<linearGradient id="paint33_linear_16_625" x1="660.5" y1="337.293" x2="660.5" y2="1269.67" gradientUnits="userSpaceOnUse">
<stop stop-color="#1A191D" stop-opacity="0"/>
<stop offset="1" stop-color="#1A191D"/>
</linearGradient>
<linearGradient id="paint34_linear_16_625" x1="660.5" y1="347.293" x2="660.5" y2="1279.67" gradientUnits="userSpaceOnUse">
<stop stop-color="#1A191D" stop-opacity="0"/>
<stop offset="1" stop-color="#1A191D"/>
</linearGradient>
<linearGradient id="paint35_linear_16_625" x1="660.5" y1="357.293" x2="660.5" y2="1289.67" gradientUnits="userSpaceOnUse">
<stop stop-color="#1A191D" stop-opacity="0"/>
<stop offset="1" stop-color="#1A191D"/>
</linearGradient>
<linearGradient id="paint36_linear_16_625" x1="660.5" y1="367.293" x2="660.5" y2="1299.67" gradientUnits="userSpaceOnUse">
<stop stop-color="#1A191D" stop-opacity="0"/>
<stop offset="1" stop-color="#1A191D"/>
</linearGradient>
<linearGradient id="paint37_linear_16_625" x1="660.5" y1="377.293" x2="660.5" y2="1309.67" gradientUnits="userSpaceOnUse">
<stop stop-color="#1A191D" stop-opacity="0"/>
<stop offset="1" stop-color="#1A191D"/>
</linearGradient>
<linearGradient id="paint38_linear_16_625" x1="660.5" y1="387.293" x2="660.5" y2="1319.67" gradientUnits="userSpaceOnUse">
<stop stop-color="#1A191D" stop-opacity="0"/>
<stop offset="1" stop-color="#1A191D"/>
</linearGradient>
<linearGradient id="paint39_linear_16_625" x1="660.5" y1="397.293" x2="660.5" y2="1329.67" gradientUnits="userSpaceOnUse">
<stop stop-color="#1A191D" stop-opacity="0"/>
<stop offset="1" stop-color="#1A191D"/>
</linearGradient>
<linearGradient id="paint40_linear_16_625" x1="660.5" y1="407.293" x2="660.5" y2="1339.67" gradientUnits="userSpaceOnUse">
<stop stop-color="#1A191D" stop-opacity="0"/>
<stop offset="1" stop-color="#1A191D"/>
</linearGradient>
<linearGradient id="paint41_linear_16_625" x1="660.5" y1="417.293" x2="660.5" y2="1349.67" gradientUnits="userSpaceOnUse">
<stop stop-color="#1A191D" stop-opacity="0"/>
<stop offset="1" stop-color="#1A191D"/>
</linearGradient>
<linearGradient id="paint42_linear_16_625" x1="660.5" y1="427.293" x2="660.5" y2="1359.67" gradientUnits="userSpaceOnUse">
<stop stop-color="#1A191D" stop-opacity="0"/>
<stop offset="1" stop-color="#1A191D"/>
</linearGradient>
<linearGradient id="paint43_linear_16_625" x1="660.5" y1="437.293" x2="660.5" y2="1369.67" gradientUnits="userSpaceOnUse">
<stop stop-color="#1A191D" stop-opacity="0"/>
<stop offset="1" stop-color="#1A191D"/>
</linearGradient>
<linearGradient id="paint44_linear_16_625" x1="660.5" y1="447.293" x2="660.5" y2="1379.67" gradientUnits="userSpaceOnUse">
<stop stop-color="#1A191D" stop-opacity="0"/>
<stop offset="1" stop-color="#1A191D"/>
</linearGradient>
<linearGradient id="paint45_linear_16_625" x1="660.5" y1="457.293" x2="660.5" y2="1389.67" gradientUnits="userSpaceOnUse">
<stop stop-color="#1A191D" stop-opacity="0"/>
<stop offset="1" stop-color="#1A191D"/>
</linearGradient>
<linearGradient id="paint46_linear_16_625" x1="660.5" y1="467.293" x2="660.5" y2="1399.67" gradientUnits="userSpaceOnUse">
<stop stop-color="#1A191D" stop-opacity="0"/>
<stop offset="1" stop-color="#1A191D"/>
</linearGradient>
<linearGradient id="paint47_linear_16_625" x1="660.5" y1="477.293" x2="660.5" y2="1409.67" gradientUnits="userSpaceOnUse">
<stop stop-color="#1A191D" stop-opacity="0"/>
<stop offset="1" stop-color="#1A191D"/>
</linearGradient>
<linearGradient id="paint48_linear_16_625" x1="660.5" y1="487.293" x2="660.5" y2="1419.67" gradientUnits="userSpaceOnUse">
<stop stop-color="#1A191D" stop-opacity="0"/>
<stop offset="1" stop-color="#1A191D"/>
</linearGradient>
<linearGradient id="paint49_linear_16_625" x1="660.5" y1="497.293" x2="660.5" y2="1429.67" gradientUnits="userSpaceOnUse">
<stop stop-color="#1A191D" stop-opacity="0"/>
<stop offset="1" stop-color="#1A191D"/>
</linearGradient>
<linearGradient id="paint50_linear_16_625" x1="660.5" y1="507.293" x2="660.5" y2="1439.67" gradientUnits="userSpaceOnUse">
<stop stop-color="#1A191D" stop-opacity="0"/>
<stop offset="1" stop-color="#1A191D"/>
</linearGradient>
<linearGradient id="paint51_linear_16_625" x1="660.5" y1="517.293" x2="660.5" y2="1449.67" gradientUnits="userSpaceOnUse">
<stop stop-color="#1A191D" stop-opacity="0"/>
<stop offset="1" stop-color="#1A191D"/>
</linearGradient>
<linearGradient id="paint52_linear_16_625" x1="660.5" y1="527.293" x2="660.5" y2="1459.67" gradientUnits="userSpaceOnUse">
<stop stop-color="#1A191D" stop-opacity="0"/>
<stop offset="1" stop-color="#1A191D"/>
</linearGradient>
<linearGradient id="paint53_linear_16_625" x1="660.5" y1="537.293" x2="660.5" y2="1469.67" gradientUnits="userSpaceOnUse">
<stop stop-color="#1A191D" stop-opacity="0"/>
<stop offset="1" stop-color="#1A191D"/>
</linearGradient>
<linearGradient id="paint54_linear_16_625" x1="660.5" y1="547.293" x2="660.5" y2="1479.67" gradientUnits="userSpaceOnUse">
<stop stop-color="#1A191D" stop-opacity="0"/>
<stop offset="1" stop-color="#1A191D"/>
</linearGradient>
<linearGradient id="paint55_linear_16_625" x1="660.5" y1="557.293" x2="660.5" y2="1489.67" gradientUnits="userSpaceOnUse">
<stop stop-color="#1A191D" stop-opacity="0"/>
<stop offset="1" stop-color="#1A191D"/>
</linearGradient>
<linearGradient id="paint56_linear_16_625" x1="660.5" y1="567.293" x2="660.5" y2="1499.67" gradientUnits="userSpaceOnUse">
<stop stop-color="#1A191D" stop-opacity="0"/>
<stop offset="1" stop-color="#1A191D"/>
</linearGradient>
<linearGradient id="paint57_linear_16_625" x1="660.5" y1="577.293" x2="660.5" y2="1509.67" gradientUnits="userSpaceOnUse">
<stop stop-color="#1A191D" stop-opacity="0"/>
<stop offset="1" stop-color="#1A191D"/>
</linearGradient>
<linearGradient id="paint58_linear_16_625" x1="660.5" y1="587.293" x2="660.5" y2="1519.67" gradientUnits="userSpaceOnUse">
<stop stop-color="#1A191D" stop-opacity="0"/>
<stop offset="1" stop-color="#1A191D"/>
</linearGradient>
<linearGradient id="paint59_linear_16_625" x1="660.5" y1="597.293" x2="660.5" y2="1529.67" gradientUnits="userSpaceOnUse">
<stop stop-color="#1A191D" stop-opacity="0"/>
<stop offset="1" stop-color="#1A191D"/>
</linearGradient>
<linearGradient id="paint60_linear_16_625" x1="660.5" y1="607.293" x2="660.5" y2="1539.67" gradientUnits="userSpaceOnUse">
<stop stop-color="#1A191D" stop-opacity="0"/>
<stop offset="1" stop-color="#1A191D"/>
</linearGradient>
<linearGradient id="paint61_linear_16_625" x1="660.5" y1="617.293" x2="660.5" y2="1549.67" gradientUnits="userSpaceOnUse">
<stop stop-color="#1A191D" stop-opacity="0"/>
<stop offset="1" stop-color="#1A191D"/>
</linearGradient>
<linearGradient id="paint62_linear_16_625" x1="660.5" y1="627.293" x2="660.5" y2="1559.67" gradientUnits="userSpaceOnUse">
<stop stop-color="#1A191D" stop-opacity="0"/>
<stop offset="1" stop-color="#1A191D"/>
</linearGradient>
<linearGradient id="paint63_linear_16_625" x1="660.5" y1="637.293" x2="660.5" y2="1569.67" gradientUnits="userSpaceOnUse">
<stop stop-color="#1A191D" stop-opacity="0"/>
<stop offset="1" stop-color="#1A191D"/>
</linearGradient>
<linearGradient id="paint64_linear_16_625" x1="660.5" y1="647.293" x2="660.5" y2="1579.67" gradientUnits="userSpaceOnUse">
<stop stop-color="#1A191D" stop-opacity="0"/>
<stop offset="1" stop-color="#1A191D"/>
</linearGradient>
<linearGradient id="paint65_linear_16_625" x1="660.5" y1="657.293" x2="660.5" y2="1589.67" gradientUnits="userSpaceOnUse">
<stop stop-color="#1A191D" stop-opacity="0"/>
<stop offset="1" stop-color="#1A191D"/>
</linearGradient>
<linearGradient id="paint66_linear_16_625" x1="660.5" y1="667.293" x2="660.5" y2="1599.67" gradientUnits="userSpaceOnUse">
<stop stop-color="#1A191D" stop-opacity="0"/>
<stop offset="1" stop-color="#1A191D"/>
</linearGradient>
<linearGradient id="paint67_linear_16_625" x1="660.5" y1="677.293" x2="660.5" y2="1609.67" gradientUnits="userSpaceOnUse">
<stop stop-color="#1A191D" stop-opacity="0"/>
<stop offset="1" stop-color="#1A191D"/>
</linearGradient>
<linearGradient id="paint68_linear_16_625" x1="660.5" y1="687.293" x2="660.5" y2="1619.67" gradientUnits="userSpaceOnUse">
<stop stop-color="#1A191D" stop-opacity="0"/>
<stop offset="1" stop-color="#1A191D"/>
</linearGradient>
<linearGradient id="paint69_linear_16_625" x1="660.5" y1="697.293" x2="660.5" y2="1629.67" gradientUnits="userSpaceOnUse">
<stop stop-color="#1A191D" stop-opacity="0"/>
<stop offset="1" stop-color="#1A191D"/>
</linearGradient>
<linearGradient id="paint70_linear_16_625" x1="660.5" y1="707.293" x2="660.5" y2="1639.67" gradientUnits="userSpaceOnUse">
<stop stop-color="#1A191D" stop-opacity="0"/>
<stop offset="1" stop-color="#1A191D"/>
</linearGradient>
<linearGradient id="paint71_linear_16_625" x1="660.5" y1="717.293" x2="660.5" y2="1649.67" gradientUnits="userSpaceOnUse">
<stop stop-color="#1A191D" stop-opacity="0"/>
<stop offset="1" stop-color="#1A191D"/>
</linearGradient>
<linearGradient id="paint72_linear_16_625" x1="660.5" y1="727.293" x2="660.5" y2="1659.67" gradientUnits="userSpaceOnUse">
<stop stop-color="#1A191D" stop-opacity="0"/>
<stop offset="1" stop-color="#1A191D"/>
</linearGradient>
<linearGradient id="paint73_linear_16_625" x1="660.5" y1="737.293" x2="660.5" y2="1669.67" gradientUnits="userSpaceOnUse">
<stop stop-color="#1A191D" stop-opacity="0"/>
<stop offset="1" stop-color="#1A191D"/>
</linearGradient>
<linearGradient id="paint74_linear_16_625" x1="660.5" y1="747.293" x2="660.5" y2="1679.67" gradientUnits="userSpaceOnUse">
<stop stop-color="#1A191D" stop-opacity="0"/>
<stop offset="1" stop-color="#1A191D"/>
</linearGradient>
<linearGradient id="paint75_linear_16_625" x1="660.5" y1="757.293" x2="660.5" y2="1689.67" gradientUnits="userSpaceOnUse">
<stop stop-color="#1A191D" stop-opacity="0"/>
<stop offset="1" stop-color="#1A191D"/>
</linearGradient>
<linearGradient id="paint76_linear_16_625" x1="660.5" y1="767.293" x2="660.5" y2="1699.67" gradientUnits="userSpaceOnUse">
<stop stop-color="#1A191D" stop-opacity="0"/>
<stop offset="1" stop-color="#1A191D"/>
</linearGradient>
<linearGradient id="paint77_linear_16_625" x1="660.5" y1="777.293" x2="660.5" y2="1709.67" gradientUnits="userSpaceOnUse">
<stop stop-color="#1A191D" stop-opacity="0"/>
<stop offset="1" stop-color="#1A191D"/>
</linearGradient>
<linearGradient id="paint78_linear_16_625" x1="660.5" y1="787.293" x2="660.5" y2="1719.67" gradientUnits="userSpaceOnUse">
<stop stop-color="#1A191D" stop-opacity="0"/>
<stop offset="1" stop-color="#1A191D"/>
</linearGradient>
<linearGradient id="paint79_linear_16_625" x1="660.5" y1="797.293" x2="660.5" y2="1729.67" gradientUnits="userSpaceOnUse">
<stop stop-color="#1A191D" stop-opacity="0"/>
<stop offset="1" stop-color="#1A191D"/>
</linearGradient>
<linearGradient id="paint80_linear_16_625" x1="660.5" y1="807.293" x2="660.5" y2="1739.67" gradientUnits="userSpaceOnUse">
<stop stop-color="#1A191D" stop-opacity="0"/>
<stop offset="1" stop-color="#1A191D"/>
</linearGradient>
<linearGradient id="paint81_linear_16_625" x1="660.5" y1="817.293" x2="660.5" y2="1749.67" gradientUnits="userSpaceOnUse">
<stop stop-color="#1A191D" stop-opacity="0"/>
<stop offset="1" stop-color="#1A191D"/>
</linearGradient>
<linearGradient id="paint82_linear_16_625" x1="660.5" y1="827.293" x2="660.5" y2="1759.67" gradientUnits="userSpaceOnUse">
<stop stop-color="#1A191D" stop-opacity="0"/>
<stop offset="1" stop-color="#1A191D"/>
</linearGradient>
<linearGradient id="paint83_linear_16_625" x1="660.5" y1="837.293" x2="660.5" y2="1769.67" gradientUnits="userSpaceOnUse">
<stop stop-color="#1A191D" stop-opacity="0"/>
<stop offset="1" stop-color="#1A191D"/>
</linearGradient>
<linearGradient id="paint84_linear_16_625" x1="660.5" y1="847.293" x2="660.5" y2="1779.67" gradientUnits="userSpaceOnUse">
<stop stop-color="#1A191D" stop-opacity="0"/>
<stop offset="1" stop-color="#1A191D"/>
</linearGradient>
<linearGradient id="paint85_linear_16_625" x1="660.5" y1="857.293" x2="660.5" y2="1789.67" gradientUnits="userSpaceOnUse">
<stop stop-color="#1A191D" stop-opacity="0"/>
<stop offset="1" stop-color="#1A191D"/>
</linearGradient>
<linearGradient id="paint86_linear_16_625" x1="660.5" y1="867.293" x2="660.5" y2="1799.67" gradientUnits="userSpaceOnUse">
<stop stop-color="#1A191D" stop-opacity="0"/>
<stop offset="1" stop-color="#1A191D"/>
</linearGradient>
<linearGradient id="paint87_linear_16_625" x1="660.5" y1="877.293" x2="660.5" y2="1809.67" gradientUnits="userSpaceOnUse">
<stop stop-color="#1A191D" stop-opacity="0"/>
<stop offset="1" stop-color="#1A191D"/>
</linearGradient>
<linearGradient id="paint88_linear_16_625" x1="660.5" y1="887.293" x2="660.5" y2="1819.67" gradientUnits="userSpaceOnUse">
<stop stop-color="#1A191D" stop-opacity="0"/>
<stop offset="1" stop-color="#1A191D"/>
</linearGradient>
<linearGradient id="paint89_linear_16_625" x1="660.5" y1="897.293" x2="660.5" y2="1829.67" gradientUnits="userSpaceOnUse">
<stop stop-color="#1A191D" stop-opacity="0"/>
<stop offset="1" stop-color="#1A191D"/>
</linearGradient>
<linearGradient id="paint90_linear_16_625" x1="660.5" y1="907.293" x2="660.5" y2="1839.67" gradientUnits="userSpaceOnUse">
<stop stop-color="#1A191D" stop-opacity="0"/>
<stop offset="1" stop-color="#1A191D"/>
</linearGradient>
<linearGradient id="paint91_linear_16_625" x1="660.5" y1="917.293" x2="660.5" y2="1849.67" gradientUnits="userSpaceOnUse">
<stop stop-color="#1A191D" stop-opacity="0"/>
<stop offset="1" stop-color="#1A191D"/>
</linearGradient>
<linearGradient id="paint92_linear_16_625" x1="660.5" y1="927.293" x2="660.5" y2="1859.67" gradientUnits="userSpaceOnUse">
<stop stop-color="#1A191D" stop-opacity="0"/>
<stop offset="1" stop-color="#1A191D"/>
</linearGradient>
<linearGradient id="paint93_linear_16_625" x1="660.5" y1="937.293" x2="660.5" y2="1869.67" gradientUnits="userSpaceOnUse">
<stop stop-color="#1A191D" stop-opacity="0"/>
<stop offset="1" stop-color="#1A191D"/>
</linearGradient>
<linearGradient id="paint94_linear_16_625" x1="660.5" y1="947.293" x2="660.5" y2="1879.67" gradientUnits="userSpaceOnUse">
<stop stop-color="#1A191D" stop-opacity="0"/>
<stop offset="1" stop-color="#1A191D"/>
</linearGradient>
<linearGradient id="paint95_linear_16_625" x1="660.5" y1="957.293" x2="660.5" y2="1889.67" gradientUnits="userSpaceOnUse">
<stop stop-color="#1A191D" stop-opacity="0"/>
<stop offset="1" stop-color="#1A191D"/>
</linearGradient>
<linearGradient id="paint96_linear_16_625" x1="660.5" y1="967.293" x2="660.5" y2="1899.67" gradientUnits="userSpaceOnUse">
<stop stop-color="#1A191D" stop-opacity="0"/>
<stop offset="1" stop-color="#1A191D"/>
</linearGradient>
<linearGradient id="paint97_linear_16_625" x1="660.5" y1="977.293" x2="660.5" y2="1909.67" gradientUnits="userSpaceOnUse">
<stop stop-color="#1A191D" stop-opacity="0"/>
<stop offset="1" stop-color="#1A191D"/>
</linearGradient>
<linearGradient id="paint98_linear_16_625" x1="660.5" y1="987.293" x2="660.5" y2="1919.67" gradientUnits="userSpaceOnUse">
<stop stop-color="#1A191D" stop-opacity="0"/>
<stop offset="1" stop-color="#1A191D"/>
</linearGradient>
<linearGradient id="paint99_linear_16_625" x1="660.5" y1="997.293" x2="660.5" y2="1929.67" gradientUnits="userSpaceOnUse">
<stop stop-color="#1A191D" stop-opacity="0"/>
<stop offset="1" stop-color="#1A191D"/>
</linearGradient>
<linearGradient id="paint100_linear_16_625" x1="660.5" y1="1007.29" x2="660.5" y2="1939.67" gradientUnits="userSpaceOnUse">
<stop stop-color="#1A191D" stop-opacity="0"/>
<stop offset="1" stop-color="#1A191D"/>
</linearGradient>
<linearGradient id="paint101_linear_16_625" x1="660.5" y1="1017.29" x2="660.5" y2="1949.67" gradientUnits="userSpaceOnUse">
<stop stop-color="#1A191D" stop-opacity="0"/>
<stop offset="1" stop-color="#1A191D"/>
</linearGradient>
<linearGradient id="paint102_linear_16_625" x1="660.5" y1="1027.29" x2="660.5" y2="1959.67" gradientUnits="userSpaceOnUse">
<stop stop-color="#1A191D" stop-opacity="0"/>
<stop offset="1" stop-color="#1A191D"/>
</linearGradient>
<linearGradient id="paint103_linear_16_625" x1="660.5" y1="1037.29" x2="660.5" y2="1969.67" gradientUnits="userSpaceOnUse">
<stop stop-color="#1A191D" stop-opacity="0"/>
<stop offset="1" stop-color="#1A191D"/>
</linearGradient>
<linearGradient id="paint104_linear_16_625" x1="660.5" y1="1047.29" x2="660.5" y2="1979.67" gradientUnits="userSpaceOnUse">
<stop stop-color="#1A191D" stop-opacity="0"/>
<stop offset="1" stop-color="#1A191D"/>
</linearGradient>
<linearGradient id="paint105_linear_16_625" x1="660.5" y1="1057.29" x2="660.5" y2="1989.67" gradientUnits="userSpaceOnUse">
<stop stop-color="#1A191D" stop-opacity="0"/>
<stop offset="1" stop-color="#1A191D"/>
</linearGradient>
<linearGradient id="paint106_linear_16_625" x1="660.5" y1="1067.29" x2="660.5" y2="1999.67" gradientUnits="userSpaceOnUse">
<stop stop-color="#1A191D" stop-opacity="0"/>
<stop offset="1" stop-color="#1A191D"/>
</linearGradient>
<linearGradient id="paint107_linear_16_625" x1="660.5" y1="1077.29" x2="660.5" y2="2009.67" gradientUnits="userSpaceOnUse">
<stop stop-color="#1A191D" stop-opacity="0"/>
<stop offset="1" stop-color="#1A191D"/>
</linearGradient>
<linearGradient id="paint108_linear_16_625" x1="660.5" y1="1087.29" x2="660.5" y2="2019.67" gradientUnits="userSpaceOnUse">
<stop stop-color="#1A191D" stop-opacity="0"/>
<stop offset="1" stop-color="#1A191D"/>
</linearGradient>
<linearGradient id="paint109_linear_16_625" x1="660.5" y1="1097.29" x2="660.5" y2="2029.67" gradientUnits="userSpaceOnUse">
<stop stop-color="#1A191D" stop-opacity="0"/>
<stop offset="1" stop-color="#1A191D"/>
</linearGradient>
<linearGradient id="paint110_linear_16_625" x1="660.5" y1="1107.29" x2="660.5" y2="2039.67" gradientUnits="userSpaceOnUse">
<stop stop-color="#1A191D" stop-opacity="0"/>
<stop offset="1" stop-color="#1A191D"/>
</linearGradient>
<linearGradient id="paint111_linear_16_625" x1="660.5" y1="1117.29" x2="660.5" y2="2049.67" gradientUnits="userSpaceOnUse">
<stop stop-color="#1A191D" stop-opacity="0"/>
<stop offset="1" stop-color="#1A191D"/>
</linearGradient>
<linearGradient id="paint112_linear_16_625" x1="660.5" y1="1127.29" x2="660.5" y2="2059.67" gradientUnits="userSpaceOnUse">
<stop stop-color="#1A191D" stop-opacity="0"/>
<stop offset="1" stop-color="#1A191D"/>
</linearGradient>
<linearGradient id="paint113_linear_16_625" x1="660.5" y1="1137.29" x2="660.5" y2="2069.67" gradientUnits="userSpaceOnUse">
<stop stop-color="#1A191D" stop-opacity="0"/>
<stop offset="1" stop-color="#1A191D"/>
</linearGradient>
<linearGradient id="paint114_linear_16_625" x1="660.5" y1="1147.29" x2="660.5" y2="2079.67" gradientUnits="userSpaceOnUse">
<stop stop-color="#1A191D" stop-opacity="0"/>
<stop offset="1" stop-color="#1A191D"/>
</linearGradient>
<linearGradient id="paint115_linear_16_625" x1="660.5" y1="1157.29" x2="660.5" y2="2089.67" gradientUnits="userSpaceOnUse">
<stop stop-color="#1A191D" stop-opacity="0"/>
<stop offset="1" stop-color="#1A191D"/>
</linearGradient>
</defs>
</svg>
