<svg width="28" height="28" viewBox="0 0 28 28" fill="none" xmlns="http://www.w3.org/2000/svg">
<circle cx="14" cy="14" r="13" stroke="white"/>
<path fill-rule="evenodd" clip-rule="evenodd" d="M19.4696 9.29855C20.072 9.46282 20.5464 9.94685 20.7074 10.5615C21 11.6756 21 14 21 14C21 14 21 16.3244 20.7074 17.4385C20.5464 18.0531 20.072 18.5372 19.4696 18.7015C18.3779 19 14 19 14 19C14 19 9.62206 19 8.5303 18.7015C7.9279 18.5372 7.45349 18.0531 7.29249 17.4385C7 16.3244 7 14 7 14C7 14 7 11.6756 7.29249 10.5615C7.45349 9.94685 7.9279 9.46282 8.5303 9.29855C9.62206 9 14 9 14 9C14 9 18.3779 9 19.4696 9.29855ZM16 14.0001L13 12V16L16 14.0001Z" fill="white"/>
</svg>
