<?xml version="1.0" encoding="utf-8"?><svg viewBox="0 0 53 40" xmlns="http://www.w3.org/2000/svg" xmlns:xlink="http://www.w3.org/1999/xlink"><style>:root>svg{display:none}:root>svg:target{display:block}</style><svg fill="none" viewBox="0 0 40 17" id="arrow-left" xmlns="http://www.w3.org/2000/svg"><g clip-path="url(#aclip0_71_432)"><path fill-rule="evenodd" clip-rule="evenodd" d="M3.252 9.402l5.994 5.915a.934.934 0 010 1.331.964.964 0 01-1.348 0l-7.62-7.52a.934.934 0 010-1.332L7.899.275a.964.964 0 011.348 0 .934.934 0 010 1.331L3.252 7.521h35.796c.525 0 .952.422.952.94 0 .52-.427.94-.952.94H3.252z" fill="#fff"/></g><defs><clipPath id="aclip0_71_432"><path fill="#fff" transform="rotate(-180 20 8.462)" d="M0 0h40v16.923H0z"/></clipPath></defs></svg><svg fill="none" viewBox="0 0 40 17" id="arrow-right" xmlns="http://www.w3.org/2000/svg"><g clip-path="url(#bclip0_71_433)"><path fill-rule="evenodd" clip-rule="evenodd" d="M36.748 7.521l-5.994-5.915a.935.935 0 010-1.331.964.964 0 011.348 0l7.62 7.52a.934.934 0 010 1.332l-7.62 7.521a.964.964 0 01-1.348 0 .935.935 0 010-1.331l5.994-5.915H.952A.947.947 0 010 8.462c0-.52.427-.94.952-.94h35.796z" fill="#fff"/></g><defs><clipPath id="bclip0_71_433"><path fill="#fff" d="M0 0h40v16.923H0z"/></clipPath></defs></svg><svg fill="none" viewBox="0 0 28 26" id="black_basket" xmlns="http://www.w3.org/2000/svg"><path fill-rule="evenodd" clip-rule="evenodd" d="M8.417 21.412a2.296 2.296 0 00-2.296 2.294 2.296 2.296 0 004.592 0 2.296 2.296 0 00-2.296-2.294zm15.304 0a2.296 2.296 0 00-2.296 2.294 2.296 2.296 0 004.591 0 2.296 2.296 0 00-2.295-2.294zm-15.304 1.53a.765.765 0 110 1.53.765.765 0 010-1.53zm15.304 0a.765.765 0 110 1.53.765.765 0 010-1.53zM9.485 16.822l.193.921a.763.763 0 00.748.609H20.66a.765.765 0 010 1.53H10.426a2.294 2.294 0 01-2.246-1.827L4.86 2.138a.763.763 0 00-.748-.609H.765A.765.765 0 01.765 0h3.347C5.2 0 6.137.762 6.36 1.826l2.808 13.468H22.7c.375 0 .693-.27.756-.64.29-1.749.811-4.87 1.103-6.62a2.295 2.295 0 012.265-1.916.765.765 0 010 1.53.767.767 0 00-.756.638c-.29 1.75-.81 4.872-1.103 6.621a2.295 2.295 0 01-2.265 1.916H9.485z" fill="#000"/></svg><svg fill="none" viewBox="0 0 29 26" id="burger_menu" xmlns="http://www.w3.org/2000/svg"><path d="M1.017 1.935h26.261c.23 0 .452-.095.615-.263a.916.916 0 00.255-.637.916.916 0 00-.255-.636.854.854 0 00-.615-.264H1.017A.854.854 0 00.402.4a.916.916 0 00-.255.636c0 .239.092.468.255.637a.854.854 0 00.615.263zM27.278 11.937H1.017a.854.854 0 00-.615.263.916.916 0 00-.255.636c0 .24.092.468.255.637a.854.854 0 00.615.263h26.261c.23 0 .452-.094.615-.263a.917.917 0 00.255-.637.917.917 0 00-.255-.636.854.854 0 00-.615-.263zM27.278 23.785H1.017a.854.854 0 00-.615.263.916.916 0 00-.255.637c0 .239.092.467.255.636a.854.854 0 00.615.264h26.261c.23 0 .452-.095.615-.264a.917.917 0 00.255-.636.917.917 0 00-.255-.637.854.854 0 00-.615-.263z" fill="#fff"/></svg><svg fill="none" viewBox="0 0 28 26" id="cart" xmlns="http://www.w3.org/2000/svg"><path fill-rule="evenodd" clip-rule="evenodd" d="M8.417 21.412a2.296 2.296 0 00-2.296 2.294 2.296 2.296 0 004.592 0 2.296 2.296 0 00-2.296-2.294zm15.304 0a2.296 2.296 0 00-2.296 2.294 2.296 2.296 0 004.591 0 2.296 2.296 0 00-2.295-2.294zm-15.304 1.53a.765.765 0 110 1.53.765.765 0 010-1.53zm15.304 0a.765.765 0 110 1.53.765.765 0 010-1.53zM9.485 16.822l.193.921a.763.763 0 00.748.609H20.66a.765.765 0 010 1.53H10.426a2.294 2.294 0 01-2.246-1.827L4.86 2.138a.763.763 0 00-.748-.609H.765A.765.765 0 01.765 0h3.347C5.2 0 6.137.762 6.36 1.826l2.808 13.468H22.7c.375 0 .693-.27.756-.64.29-1.749.811-4.87 1.103-6.62a2.295 2.295 0 012.265-1.916.765.765 0 010 1.53.767.767 0 00-.756.638c-.29 1.75-.81 4.872-1.103 6.621a2.295 2.295 0 01-2.265 1.916H9.485z" fill="#fff"/></svg><svg fill="none" viewBox="0 0 36 30" id="cart28" xmlns="http://www.w3.org/2000/svg"><path fill-rule="evenodd" clip-rule="evenodd" d="M6.475 26.47a1.766 1.766 0 100 3.532 1.766 1.766 0 000-3.531zm11.772 0a1.766 1.766 0 100 3.532 1.766 1.766 0 000-3.531zM6.475 27.648a.589.589 0 110 1.177.589.589 0 010-1.177zm11.772 0a.589.589 0 110 1.177.589.589 0 010-1.177zm-10.95-4.706l.148.708a.587.587 0 00.575.469h7.872a.589.589 0 010 1.176H8.02a1.765 1.765 0 01-1.728-1.405L3.74 11.645a.587.587 0 00-.576-.468H.59a.589.589 0 010-1.177h2.574c.836 0 1.558.586 1.728 1.405l2.16 10.36h10.41a.59.59 0 00.582-.492l.849-5.093a1.766 1.766 0 011.742-1.474.589.589 0 010 1.176.59.59 0 00-.582.492c-.223 1.346-.623 3.747-.848 5.093a1.766 1.766 0 01-1.742 1.474H7.296z" fill="#fff"/><circle cx="25" cy="11" r="11" fill="#FCB500"/><path d="M24.375 15h-5.736v-.979l2.841-3.1c.41-.456.702-.837.873-1.142.176-.308.264-.617.264-.925 0-.407-.115-.735-.346-.985-.226-.25-.533-.375-.92-.375-.46 0-.818.14-1.072.422-.254.281-.38.666-.38 1.154h-1.424c0-.52.117-.986.351-1.4a2.459 2.459 0 011.014-.973c.441-.23.95-.345 1.523-.345.828 0 1.48.209 1.957.627.48.414.721.988.721 1.722 0 .426-.121.873-.363 1.342-.239.465-.631.994-1.178 1.588l-2.086 2.232h3.961V15zm6.457-6.281c0 .418-.107.79-.322 1.119-.215.324-.508.58-.88.768.446.207.788.49 1.026.85.242.359.364.765.364 1.218 0 .75-.254 1.346-.762 1.787-.508.437-1.184.656-2.027.656-.848 0-1.528-.22-2.04-.662-.507-.441-.761-1.035-.761-1.781 0-.457.12-.867.363-1.23a2.333 2.333 0 011.02-.839 2.253 2.253 0 01-.873-.767 2.024 2.024 0 01-.317-1.12c0-.726.234-1.302.703-1.728.469-.426 1.102-.638 1.899-.638.8 0 1.435.212 1.904.638.469.426.703 1.002.703 1.729zm-1.236 3.885c0-.422-.127-.762-.381-1.02-.25-.262-.582-.393-.996-.393-.414 0-.746.13-.996.387-.246.258-.37.6-.37 1.026 0 .418.122.752.364 1.002.246.25.584.374 1.014.374.43 0 .763-.12 1.001-.363.243-.242.364-.58.364-1.014zm-.182-3.833c0-.37-.107-.675-.322-.914-.215-.242-.504-.363-.867-.363-.364 0-.65.115-.862.346-.21.226-.316.537-.316.931 0 .391.105.702.316.932.215.23.504.346.867.346.364 0 .65-.115.862-.346.215-.23.322-.54.322-.932z" fill="#000"/></svg><svg fill="none" viewBox="0 0 36 30" id="heart4" xmlns="http://www.w3.org/2000/svg"><path fill-rule="evenodd" clip-rule="evenodd" d="M10.385 13.132C11.27 11.28 13.142 10 15.304 10c3.017 0 5.465 2.489 5.465 5.556 0 3.242-1.622 6.215-3.59 8.605-2.893 3.512-6.51 5.758-6.51 5.758a.544.544 0 01-.57 0s-3.616-2.246-6.508-5.758C1.622 21.771 0 18.798 0 15.556 0 12.489 2.449 10 5.466 10c2.162 0 4.032 1.279 4.919 3.132zm9.291 2.424c0-2.454-1.959-4.445-4.372-4.445-2.414 0-4.373 1.991-4.373 4.445v.02a.553.553 0 01-.546.535.551.551 0 01-.547-.548v-.007c0-2.454-1.959-4.445-4.372-4.445-2.414 0-4.373 1.991-4.373 4.445 0 2.98 1.526 5.695 3.335 7.892 2.299 2.79 5.072 4.748 5.957 5.336.884-.588 3.657-2.546 5.956-5.336 1.81-2.197 3.335-4.912 3.335-7.892z" fill="#fff"/><circle cx="25" cy="11" r="11" fill="#FCB500"/><path d="M26.455 11.959h1.06v1.143h-1.06V15h-1.424v-1.898h-3.685l-.041-.868 3.68-5.765h1.47v5.49zm-3.656 0h2.232V8.396l-.105.188-2.127 3.375z" fill="#000"/></svg><svg fill="none" viewBox="0 0 28 28" id="icon" xmlns="http://www.w3.org/2000/svg"><path d="M28 14.009a13.983 13.983 0 00-6.273-11.685A14.006 14.006 0 003.064 5.255a13.986 13.986 0 001.25 18.838c.046.058.1.11.16.153a13.97 13.97 0 0019.04.017.781.781 0 00.16-.15A13.95 13.95 0 0028 14.008zm-26.415 0A12.4 12.4 0 016.96 3.779a12.42 12.42 0 0119.11 7.315 12.4 12.4 0 01-2.839 11.2 10.928 10.928 0 00-5.912-4.646 5.808 5.808 0 002.482-4.751v-2.288a5.805 5.805 0 00-5.812-5.807 5.813 5.813 0 00-5.81 5.807v2.288a5.804 5.804 0 002.482 4.751 10.931 10.931 0 00-5.908 4.632 12.35 12.35 0 01-3.168-8.271zm12.4 3.108h-.038a4.228 4.228 0 01-4.191-4.224v-2.288a4.22 4.22 0 012.609-3.902 4.23 4.23 0 015.522 2.286c.212.513.322 1.062.322 1.616v2.288a4.222 4.222 0 01-4.191 4.224h-.032zm-8.066 6.3a9.31 9.31 0 018.026-4.715h.08a9.314 9.314 0 018.035 4.73 12.383 12.383 0 01-16.141-.015z" fill="#fff"/></svg><svg fill="none" viewBox="0 0 40 40" id="icon-earth" xmlns="http://www.w3.org/2000/svg"><path d="M.043 20.835C.484 31.474 9.253 40 20 40c10.746 0 19.515-8.526 19.958-19.165a.615.615 0 00.042-.21c0-.045-.016-.084-.025-.125.004-.168.025-.331.025-.5C40 8.973 31.027 0 20 0S0 8.973 0 20c0 .169.021.332.025.5-.009.041-.025.08-.025.125 0 .075.019.144.043.21zm31.108 7.592a27.4 27.4 0 00-5.268-1.588 63.24 63.24 0 00.35-5.588h6.225c-.114 2.568-.57 4.991-1.307 7.176zm2.555-7.177h4.98a18.607 18.607 0 01-3.328 9.474 21.456 21.456 0 00-3.072-1.8c.806-2.337 1.303-4.929 1.42-7.674zm-18.22 6.608A29.27 29.27 0 0120 27.5c1.53 0 3.041.128 4.512.358C23.645 34.526 21.75 38.75 20 38.75c-1.75 0-3.645-4.224-4.514-10.892zm1.899 10.472c-3.439-1.102-6.348-4.339-8.103-8.73a26.095 26.095 0 014.988-1.521c.574 4.37 1.623 8.177 3.115 10.251zm-2.043-24.944c1.522.235 3.082.364 4.658.364 1.576 0 3.136-.129 4.657-.364.215 2.025.343 4.235.343 6.614H15c0-2.379.127-4.589.342-6.614zm9.64 7.864a61.278 61.278 0 01-.326 5.364A30.482 30.482 0 0020 26.25c-1.578 0-3.136.129-4.658.364a60.875 60.875 0 01-.325-5.364h9.964zm.75 6.829c1.754.352 3.428.865 4.987 1.521-1.755 4.391-4.664 7.627-8.103 8.73 1.492-2.074 2.54-5.881 3.115-10.251zM26.25 20c0-2.295-.128-4.62-.367-6.838 1.85-.365 3.62-.9 5.268-1.588C32.006 14.11 32.5 16.968 32.5 20h-6.25zm-.519-8.079c-.575-4.37-1.622-8.178-3.116-10.251 3.439 1.103 6.348 4.339 8.103 8.73a25.99 25.99 0 01-4.987 1.521zm-1.217.222A29.27 29.27 0 0120 12.5a29.27 29.27 0 01-4.514-.357C16.355 5.473 18.25 1.25 20 1.25c1.75 0 3.645 4.224 4.514 10.893zm-10.245-.222A26.123 26.123 0 019.28 10.4c1.755-4.391 4.664-7.628 8.103-8.73-1.492 2.074-2.54 5.881-3.115 10.251zm-.152 1.242A64.144 64.144 0 0013.75 20H7.5c0-3.032.494-5.89 1.349-8.428a27.496 27.496 0 005.268 1.59zm-.35 8.087c.037 1.885.153 3.771.35 5.589-1.85.365-3.62.9-5.268 1.588-.736-2.184-1.193-4.608-1.306-7.177h6.224zm-6.054 7.674a21.556 21.556 0 00-3.07 1.8 18.603 18.603 0 01-3.33-9.474h4.98c.118 2.745.614 5.337 1.42 7.674zM5.39 31.725a20.148 20.148 0 012.759-1.631c1.255 3.106 3.061 5.685 5.232 7.428a18.812 18.812 0 01-7.99-5.797zm21.227 5.796c2.172-1.742 3.977-4.322 5.232-7.428.987.48 1.902 1.032 2.759 1.63a18.791 18.791 0 01-7.992 5.798zM33.75 20c0-3.209-.535-6.234-1.462-8.924a21.571 21.571 0 003.07-1.8A18.637 18.637 0 0138.75 20h-5zm.86-11.725a20.288 20.288 0 01-2.759 1.631C30.596 6.8 28.79 4.22 26.62 2.477a18.827 18.827 0 017.991 5.798zM13.383 2.479C11.21 4.22 9.405 6.8 8.15 9.908a20.216 20.216 0 01-2.759-1.633 18.8 18.8 0 017.992-5.796zm-8.74 6.797c.947.667 1.97 1.273 3.07 1.8C6.785 13.766 6.25 16.791 6.25 20h-5A18.63 18.63 0 014.643 9.276z" fill="#FCB500"/></svg><svg fill="none" viewBox="0 0 53 40" id="icon-talk" xmlns="http://www.w3.org/2000/svg"><g clip-path="url(#jclip0_143_3461)" fill="#FCB500"><path d="M44.565 17.529a.626.626 0 00-.379 1.191c4.885 1.556 7.064 3.878 7.064 7.53 0 3.249-2.964 5.77-4.73 6.985a.625.625 0 00-.27.515v4.779a9.942 9.942 0 01-3.908-2.694.63.63 0 00-.585-.199c-.356.069-.72.166-1.089.265-.637.171-1.295.349-1.918.349-3.21 0-5.458-.69-7.755-2.379a.625.625 0 00-.742 1.008c2.534 1.862 4.995 2.621 8.497 2.621.788 0 1.528-.199 2.243-.391.223-.062.444-.122.663-.173 2.336 2.468 4.979 3.029 5.094 3.051a.62.62 0 00.52-.129.622.622 0 00.23-.483v-5.299c3.227-2.301 5-5.071 5-7.826 0-4.226-2.522-6.997-7.935-8.721z"/><path d="M41.25 16.875C41.25 7.255 32.477 0 20.846 0 9.156 0 0 7.414 0 16.878c0 5.673 4.014 9.738 7.5 12.198v8.295a.627.627 0 00.881.57c.183-.081 4.449-2.02 8.099-6.011 1.581.294 3.37.576 4.992.576 11.83 0 19.778-6.282 19.778-15.631zM21.471 31.256c-1.637 0-3.498-.314-5.104-.62a.634.634 0 00-.585.199c-2.562 2.89-5.573 4.726-7.032 5.517V28.75a.625.625 0 00-.271-.515C5.18 25.966 1.25 22.156 1.25 16.878 1.25 8.114 9.857 1.25 20.846 1.25 31.766 1.25 40 7.968 40 16.875c0 8.602-7.446 14.381-18.529 14.381z"/><path d="M20.625 14.375a2.502 2.502 0 00-2.5 2.5c0 1.379 1.121 2.5 2.5 2.5s2.5-1.121 2.5-2.5-1.121-2.5-2.5-2.5zm0 3.75a1.251 1.251 0 010-2.5 1.251 1.251 0 010 2.5zM29.375 14.375a2.502 2.502 0 00-2.5 2.5c0 1.379 1.121 2.5 2.5 2.5s2.5-1.121 2.5-2.5-1.121-2.5-2.5-2.5zm0 3.75a1.251 1.251 0 010-2.5 1.251 1.251 0 010 2.5zM11.875 14.494a2.502 2.502 0 00-2.5 2.5c0 1.379 1.121 2.5 2.5 2.5s2.5-1.121 2.5-2.5-1.121-2.5-2.5-2.5zm0 3.75a1.251 1.251 0 010-2.5 1.251 1.251 0 010 2.5z"/></g><defs><clipPath id="jclip0_143_3461"><path fill="#fff" d="M0 0h52.5v40H0z"/></clipPath></defs></svg><svg fill="none" viewBox="0 0 53 40" id="icon-target" xmlns="http://www.w3.org/2000/svg"><g clip-path="url(#kclip0_143_3465)"><path d="M52.224 16.363a.667.667 0 00-.94.085l-2.959 3.55c-.064-.02-.129-.04-.2.002h-1.739l2.213-2.698a.668.668 0 00-1.025-.854L44.649 20h-1.974l2.213-2.698a.668.668 0 00-1.026-.854L40.938 20h-.94C39.974 8.949 31.015 0 20 0 8.973 0 0 8.973 0 20s8.973 20 20 20c10.591 0 19.263-8.282 19.935-18.75h1.004l2.925 3.552a.664.664 0 00.94.085.665.665 0 00.085-.94l-2.214-2.697h1.974l2.925 3.552a.665.665 0 00.94.085.665.665 0 00.085-.94l-2.213-2.697h1.739c.071.043.136.023.201.003l2.959 3.55a.664.664 0 00.94.084.665.665 0 00.085-.94l-2.769-3.322 2.769-3.323a.667.667 0 00-.086-.94zM20 38.75C9.661 38.75 1.25 30.339 1.25 20S9.661 1.25 20 1.25c10.325 0 18.724 8.387 18.748 18.75h-3.75C34.974 11.706 28.258 5 20 5 11.729 5 5 11.729 5 20s6.729 15 15 15c7.835 0 14.276-6.04 14.935-13.75h3.75c-.669 9.779-8.783 17.5-18.685 17.5zM29.997 20C29.976 14.464 25.5 10 20 10c-5.514 0-10 4.486-10 10s4.486 10 10 10c5.075 0 9.27-3.804 9.906-8.75h3.778c-.654 7.02-6.539 12.5-13.684 12.5-7.581 0-13.75-6.169-13.75-13.75S12.419 6.25 20 6.25c7.567 0 13.725 6.145 13.748 13.75h-3.75zm-5 0c-.024-2.78-2.253-5-4.997-5-2.758 0-5 2.242-5 5s2.242 5 5 5c2.308 0 4.235-1.579 4.809-3.75h3.835c-.629 4.255-4.26 7.5-8.644 7.5-4.824 0-8.75-3.926-8.75-8.75s3.926-8.75 8.75-8.75c4.81 0 8.725 3.902 8.747 8.75h-3.75zm-4.372 1.25h2.881c-.529 1.473-1.895 2.5-3.506 2.5A3.755 3.755 0 0116.25 20 3.755 3.755 0 0120 16.25c2.054 0 3.723 1.66 3.746 3.75h-3.121c-.369-.043-.668.256-.668.625s.3.668.668.625z" fill="#FCB500"/></g><defs><clipPath id="kclip0_143_3465"><path fill="#fff" d="M0 0h52.5v40H0z"/></clipPath></defs></svg><svg fill="none" viewBox="0 0 40 40" id="icon-textile" xmlns="http://www.w3.org/2000/svg"><path d="M14.817 16.764h-1.221v1.221h1.22v-1.22zM9.281 16.764H7.98v1.221H9.28v-1.22zM11.072 16.764H9.85v1.221h1.22v-1.22zM7.408 16.764H6.105v1.221h1.303v-1.22zM18.562 16.764h-1.221v1.221h1.221v-1.22zM20.387 16.748c-.106.01-.214.016-.32.016h-.854v1.221h.854c.147 0 .296-.007.442-.022l-.122-1.215zM21.84 16.219a3.114 3.114 0 01-.94.434l.32 1.179c.468-.128.909-.331 1.31-.605l-.69-1.008zM12.945 16.764h-1.221v1.221h1.22v-1.22zM2.824 16.288l-.646 1.035c.41.257.858.442 1.332.55l.273-1.19a3.126 3.126 0 01-.959-.395zM16.689 16.764h-1.221v1.221h1.22v-1.22zM4.502 16.764a3.31 3.31 0 01-.203-.006l-.075 1.219c.091.005.185.008.278.008h1.034v-1.22H4.502zM18.561 23.114H17.26v1.222h1.302v-1.221zM14.817 23.114h-1.221v1.222h1.22v-1.221zM16.69 23.114h-1.303v1.222h1.302v-1.221zM20.352 23.101c-.094.009-.19.013-.285.013h-.935v1.221h.935c.131 0 .265-.006.396-.018l-.11-1.216zM9.2 23.114H7.979v1.222h1.22v-1.221zM4.502 23.114c-.08 0-.156-.003-.234-.009l-.092 1.218c.107.008.216.012.323.012h.956v-1.221h-.953zM2.807 22.608l-.67 1.022c.408.267.853.461 1.323.578l.295-1.185a3.089 3.089 0 01-.948-.415zM11.072 23.114H9.85v1.222h1.22v-1.221zM12.945 23.114h-1.221v1.222h1.22v-1.221zM7.327 23.114H6.105v1.222h1.222v-1.221zM21.806 22.582c-.29.196-.607.34-.943.43l.313 1.18c.468-.124.91-.325 1.313-.598l-.683-1.012zM20.386 29.204c-.105.01-.213.016-.32.016h-.853v1.22h.854c.147 0 .295-.007.44-.021l-.121-1.215zM21.838 28.675a3.113 3.113 0 01-.94.435l.32 1.178c.468-.127.909-.33 1.31-.604l-.69-1.009zM9.281 29.22H7.98v1.221H9.28V29.22zM7.408 29.22H6.105v1.221h1.303V29.22zM4.502 29.22c-.067-.003-.135-.002-.203-.007l-.076 1.22c.091.005.184.008.275.008H5.536V29.22H4.502zM18.562 29.22h-1.221v1.221h1.221V29.22zM11.072 29.22H9.85v1.221h1.22V29.22zM16.689 29.22h-1.221v1.221h1.22V29.22zM14.817 29.22h-1.221v1.221h1.22V29.22zM12.945 29.22h-1.221v1.221h1.22V29.22zM2.824 28.743l-.647 1.035c.41.257.859.442 1.332.551l.273-1.19a3.124 3.124 0 01-.958-.396zM7.327 35.489H6.105v1.22h1.222v-1.22zM14.817 35.489h-1.221v1.22h1.22v-1.22zM18.562 35.489h-1.221v1.22h1.221v-1.22zM21.827 34.949a3.106 3.106 0 01-.941.432l.317 1.18c.468-.127.91-.33 1.311-.603l-.687-1.01zM4.503 35.488c-.072 0-.145-.002-.216-.007l-.08 1.218c.096.007.196.01.295.01h.953v-1.22h-.952zM16.689 35.489h-1.221v1.22h1.22v-1.22zM11.072 35.489H9.85v1.22h1.22v-1.22zM12.945 35.489h-1.221v1.22h1.22v-1.22zM20.373 35.474c-.1.01-.204.015-.306.015h-.854v1.22h.854c.141 0 .284-.006.424-.02l-.118-1.215zM9.2 35.489H7.979v1.22h1.22v-1.22zM2.817 35l-.655 1.031c.41.26.857.45 1.329.561l.28-1.188c-.338-.08-.66-.216-.954-.403zM28.782 11.863h-1.245v1.221h1.245v-1.221zM26.915 11.863H25.67v1.221h1.245v-1.221zM37.91 11.794c-.132.046-.27.07-.411.07h-.623v1.22h.623c.277 0 .55-.045.81-.136l-.399-1.154zM36.254 11.863h-1.245v1.221h1.245v-1.221zM32.519 11.863h-1.246v1.221h1.246v-1.221zM30.65 11.863h-1.245v1.221h1.245v-1.221zM34.386 11.863H33.14v1.221h1.245v-1.221zM32.519 18.712h-1.246v1.22h1.246v-1.22zM37.91 18.643c-.132.045-.27.068-.411.068h-.623v1.221h.623c.277 0 .55-.045.81-.135l-.399-1.154zM36.254 18.712h-1.245v1.22h1.245v-1.22zM34.386 18.712H33.14v1.22h1.245v-1.22zM26.915 18.712H25.67v1.22h1.245v-1.22zM28.782 18.712h-1.245v1.22h1.245v-1.22zM30.65 18.712h-1.245v1.22h1.245v-1.22zM34.386 25.56H33.14v1.221h1.245V25.56zM28.782 25.56h-1.245v1.221h1.245V25.56zM26.915 25.56H25.67v1.221h1.245V25.56zM30.65 25.56h-1.245v1.221h1.245V25.56zM32.519 25.56h-1.246v1.221h1.246V25.56zM36.254 25.56h-1.245v1.221h1.245V25.56zM37.91 25.49c-.132.046-.27.07-.411.07h-.623v1.22h.623c.277 0 .55-.045.81-.135l-.399-1.154zM30.65 32.408h-1.245v1.221h1.245v-1.221zM36.254 32.408h-1.245v1.221h1.245v-1.221zM37.91 32.34c-.132.045-.27.068-.411.068h-.623v1.221h.623c.277 0 .55-.045.81-.135l-.399-1.154zM28.782 32.408h-1.245v1.221h1.245v-1.221zM26.915 32.408H25.67v1.221h1.245v-1.221zM34.386 32.408H33.14v1.221h1.245v-1.221zM32.519 32.408h-1.246v1.221h1.246v-1.221zM18.198 8.704H6.37c-1.023 0-1.855.84-1.855 1.872 0 1.033.832 1.873 1.855 1.873H18.2c1.023 0 1.855-.84 1.855-1.873a1.866 1.866 0 00-1.856-1.872zm0 2.524H6.37a.652.652 0 010-1.303H18.2a.652.652 0 010 1.303z" fill="#FCB500"/><path d="M39.977 5.002A2.481 2.481 0 0037.5 2.524h-6.86V.034h-3.724a1.858 1.858 0 00-1.856 1.856v.002l.014 4.324-20.57-.035a4.26 4.26 0 00-3.081 1.325 4.455 4.455 0 00-1.266 3.107L0 35.51c0 2.374 2.104 4.457 4.502 4.457h15.565c2.389 0 4.407-2.017 4.407-4.406l-.004-1.93h.577v-1.222h-.58l-.014-5.627h.594V25.56h-.598l-.013-5.627h.611V18.71h-.614l-.014-5.627h.628v-1.22h-.631l-.003-1.289h-.001a4.456 4.456 0 00-1.265-3.069l-.078-.076 14.43.051c.459 0 .89-.126 1.259-.345l.002 3.776-.04-.01a1.263 1.263 0 01-.444.692l.485.617.005 5.551-.045-.01a1.263 1.263 0 01-.445.69l.49.624.005 5.546-.05-.012a1.263 1.263 0 01-.445.691l.496.63.004 5.54-.055-.013a1.263 1.263 0 01-.445.691l.501.637.002 2c0 .673-.563 1.2-1.28 1.2H24.993v1.222H37.5c1.402 0 2.501-1.064 2.501-2.423l-.023-29.773zM1.358 13.66l.01.01h-.01v-.01zm21.845 1.573l-.344-.174c-.157.31-.364.59-.616.832l.847.88.116-.117.009 3.324h-.024c0 .331-.051.658-.153.97l.18.058v.62l-.38-.199c-.162.31-.373.588-.626.829l.84.885c.059-.055.115-.112.17-.17l.008 3.155h-.039c0 .326-.046.622-.138.918l.18.055v.607l-.375-.19c-.157.309-.364.589-.616.831l.847.88c.05-.049.1-.1.148-.15l.008 3.318h-.054c0 .325-.048.63-.143.932l.2.062.001.605-.398-.204c-.159.31-.367.59-.62.83l.845.883c.06-.059.12-.12.177-.18v.238c0 1.726-1.459 3.184-3.186 3.184H4.502c-1.748 0-3.28-1.512-3.28-3.232l.001-.288c.113.13.235.253.364.369l.817-.908a3.105 3.105 0 01-.645-.81l-.53.291.005-.646.314-.109a3.195 3.195 0 01-.17-1.017H1.24l.02-3.384c.106.117.218.228.336.333l.81-.913a3.066 3.066 0 01-.646-.806l-.492.273.004-.653.276-.097a3.208 3.208 0 01-.172-1.022H1.28l.02-3.21c.085.093.175.183.268.27l.828-.898a3.17 3.17 0 01-.639-.82l-.45.243.005-.659.236-.082a2.945 2.945 0 01-.17-1.031h-.06l.021-3.298c.083.086.17.17.26.25l.81-.915a3.069 3.069 0 01-.648-.805l-.414.23.004-.64.198-.069a3.21 3.21 0 01-.172-1.012l.045.048a4.26 4.26 0 003.08 1.326h15.564a4.26 4.26 0 003.08-1.326c.016-.015.03-.031.044-.047a3.11 3.11 0 01-.137.897l.148.046.002.609zm-.011-4.616c0 1.743-1.431 3.216-3.125 3.216H4.502c-1.694 0-3.125-1.473-3.125-3.216s1.431-3.215 3.125-3.215h10.714l5.176.018c1.547.174 2.8 1.567 2.8 3.197zM26.28 1.89c0-.35.285-.635.635-.635h2.502v1.27h-2.502a.635.635 0 01-.635-.635zm11.221 4.37l-11.207-.04-.008-2.584c.196.07.408.11.629.11h10.584A1.258 1.258 0 0137.5 6.26z" fill="#FCB500"/><path d="M4.477 9.348v-1.22C3.175 8.127 2 9.237 2 10.604c0 1.367 1.176 2.479 2.478 2.479v-1.221c-.651 0-1.257-.564-1.257-1.258 0-.693.606-1.257 1.257-1.257zM20.027 8.127v1.221c.733 0 1.258.564 1.258 1.257 0 .694-.525 1.258-1.258 1.258v1.22a2.47 2.47 0 002.479-2.478 2.47 2.47 0 00-2.479-2.478z" fill="#FCB500"/></svg><svg fill="none" viewBox="0 0 40 40" id="icon_design" xmlns="http://www.w3.org/2000/svg"><g clip-path="url(#mclip0_143_3463)" fill="#FCB500"><path d="M.81 7.058C-.253 8.118-.026 9.61.82 10.45c.034.033 3.432 3.265 8.21 8.024a.632.632 0 00.889 0 .624.624 0 000-.884c-.72-.717-1.406-1.396-2.056-2.038l1.994-1.987a.624.624 0 000-.883.63.63 0 00-.887 0l-2 1.99c-1.118-1.1-2.103-2.06-2.905-2.838l4.537-4.519a.624.624 0 000-.883.63.63 0 00-.887 0l-4.551 4.532c-.924-.891-1.456-1.397-1.465-1.406-.265-.264-.613-1.006 0-1.616l6.275-6.25c.243-.245.888-.732 1.596-.03.031.035 3.2 3.62 8.037 8.437a.63.63 0 00.888 0 .624.624 0 000-.884C13.688 4.43 10.542.873 10.485.808c-1.17-1.163-2.58-.814-3.398 0L.81 7.058zM27.43 30.183a.63.63 0 00-.888 0l-1.997 1.987a430.982 430.982 0 00-1.92-1.926.63.63 0 00-.888 0 .624.624 0 000 .884 369.856 369.856 0 017.943 8.136c.43.43 1.02.666 1.66.666.659 0 1.325-.256 1.738-.669l6.273-6.32c.79-.787.835-2.12.098-2.857l-8.416-8.381a.63.63 0 00-.888 0 .623.623 0 000 .883l8.417 8.382c.25.25.203.79-.1 1.09l-6.274 6.322c-.144.145-.471.3-.848.3-.216 0-.525-.052-.758-.286-.013-.014-.538-.573-1.45-1.524l4.573-4.555a.624.624 0 000-.884.63.63 0 00-.888 0l-4.555 4.537a410.614 410.614 0 00-2.836-2.908l2.003-1.995a.622.622 0 000-.882zM.178 39.786a.628.628 0 00.629.162l12.55-3.724a.616.616 0 00.267-.159l21.45-21.506c.03-.03.045-.069.067-.103l4.589-4.57a1.937 1.937 0 000-2.753L33.16.59c-.738-.735-2.027-.735-2.765 0l-4.693 4.674c-.03.03-.047.069-.07.104L4.15 26.764a.618.618 0 00-.153.249L.031 39.156a.622.622 0 00.147.63zM26.181 6.59l1.304 1.299L8.002 27.344l-2.167-.49L26.18 6.589zM8.786 28.333l19.588-19.56 3.057 3.045L11.666 31.25h-2.88v-2.917zM33.742 14.12L13.354 34.563l-.724-2.503 19.689-19.359 1.423 1.42zM5.012 27.95l2.518.57v3.356c0 .345.282.625.628.625h3.293l.796 2.75-10.653 3.161L5.01 27.95zM31.282 1.474a.719.719 0 01.99 0l6.57 6.544a.694.694 0 01-.001.986l-4.23 4.215-7.56-7.529 4.231-4.216z"/></g><defs><clipPath id="mclip0_143_3463"><path fill="#fff" d="M0 0h40v40H0z"/></clipPath></defs></svg><svg fill="none" viewBox="0 0 24 24" id="oval_likes" xmlns="http://www.w3.org/2000/svg"><circle cx="12" cy="12" r="12" fill="#FCB500"/></svg><svg viewBox="0 0 20 18" fill="none" id="plus_black" xmlns="http://www.w3.org/2000/svg"><path fill-rule="evenodd" clip-rule="evenodd" d="M6.012 14.823c-.905 0-1.64.712-1.64 1.589S5.107 18 6.012 18c.905 0 1.64-.712 1.64-1.588 0-.877-.735-1.588-1.64-1.588zm10.931 0c-.905 0-1.64.712-1.64 1.589S16.039 18 16.944 18c.905 0 1.64-.712 1.64-1.588 0-.877-.735-1.588-1.64-1.588zm-10.93 1.06c.3 0 .546.236.546.529 0 .292-.245.53-.547.53a.538.538 0 01-.546-.53c0-.293.244-.53.546-.53zm10.93 0c.302 0 .547.236.547.529 0 .292-.245.53-.547.53a.538.538 0 01-.546-.53c0-.293.245-.53.546-.53zM6.775 11.646l.138.637a.542.542 0 00.534.422h7.31c.302 0 .547.237.547.53 0 .291-.245.529-.547.529h-7.31c-.776 0-1.446-.528-1.604-1.264L3.472 1.48a.541.541 0 00-.535-.422H.547A.538.538 0 010 .529C0 .237.245 0 .547 0h2.39c.776 0 1.446.527 1.605 1.264l2.006 9.324h9.666a.543.543 0 00.54-.442l.788-4.584c.133-.766.816-1.327 1.618-1.327.302 0 .547.237.547.53 0 .292-.245.53-.547.53a.543.543 0 00-.54.442c-.207 1.211-.58 3.372-.788 4.583-.132.766-.815 1.327-1.618 1.327H6.775z" fill="#000"/><path d="M11.105 2.53v1.588H9.526a.528.528 0 00-.526.53c0 .291.236.528.526.528h1.58v1.589c0 .292.235.53.526.53.29 0 .526-.238.526-.53V5.176h1.579c.29 0 .526-.237.526-.529a.528.528 0 00-.526-.53h-1.58V2.53A.528.528 0 0011.633 2a.528.528 0 00-.527.53z" fill="#000"/></svg><svg fill="none" viewBox="0 0 26 26" id="search" xmlns="http://www.w3.org/2000/svg"><path fill-rule="evenodd" clip-rule="evenodd" d="M17.456 17.454a9.218 9.218 0 01-6.56 2.718 9.214 9.214 0 01-6.559-2.718c-3.617-3.617-3.617-9.5 0-13.118a9.244 9.244 0 016.559-2.712c2.375 0 4.751.905 6.56 2.712 3.617 3.617 3.617 9.501 0 13.118zm8.128 6.98L19.151 18c3.685-4.278 3.51-10.755-.546-14.813-4.25-4.25-11.167-4.25-15.417 0-4.25 4.251-4.25 11.167 0 15.416a10.828 10.828 0 007.708 3.194c2.639 0 5.13-.94 7.106-2.648l6.433 6.434c.16.159.367.237.574.237a.813.813 0 00.575-1.386z" fill="#fff"/></svg><svg fill="none" viewBox="0 0 8 5" id="select" xmlns="http://www.w3.org/2000/svg"><path d="M4 5L0 0h8L4 5z" fill="#fff"/></svg><svg fill="none" viewBox="0 0 44 22" id="tag-new" xmlns="http://www.w3.org/2000/svg"><path fill="#FCB500" d="M0 0h44v22H0z"/><path d="M15.342 16h-1.32l-5.01-7.67V16h-1.32V6.047h1.32l5.024 7.704V6.047h1.306V16zm8.237-4.6h-4.313v3.527h5.01V16h-6.323V6.047h6.255v1.08h-4.942v3.2h4.313v1.072zm4.758 1.462l.191 1.313.28-1.183 1.97-6.945h1.107l1.92 6.945.274 1.203.212-1.34 1.545-6.808h1.319L34.742 16h-1.196l-2.051-7.253-.157-.759-.158.76L29.054 16h-1.196l-2.406-9.953h1.312l1.573 6.815z" fill="#fff"/></svg><svg fill="none" viewBox="0 0 44 22" id="tag-sale" xmlns="http://www.w3.org/2000/svg"><path fill="#F33030" d="M0 0h44v22H0z"/><path d="M10.246 11.288H6.91v-1.032h3.336v1.032zm6.726.37h1.381v1.032h-1.38V15H15.7v-2.31h-4.532v-.746l4.457-6.897h1.346v6.61zm-4.368 0h3.097V6.775l-.15.274-2.947 4.607zm13.412-.903c0 1.481-.253 2.582-.759 3.302-.506.72-1.296 1.08-2.372 1.08-1.062 0-1.848-.351-2.358-1.053-.51-.706-.775-1.76-.793-3.158V9.237c0-1.463.253-2.55.758-3.26.506-.711 1.3-1.067 2.38-1.067 1.07 0 1.859.344 2.365 1.032.506.684.765 1.741.779 3.172v1.64zm-1.265-1.73c0-1.07-.15-1.85-.45-2.338-.302-.492-.778-.738-1.43-.738-.647 0-1.118.244-1.415.732-.296.487-.448 1.237-.458 2.249v2.023c0 1.076.155 1.87.465 2.386.315.51.789.765 1.422.765.624 0 1.087-.241 1.388-.724.305-.483.465-1.244.478-2.283V9.025zm3.056-2.064c0-.597.189-1.09.567-1.477.383-.387.873-.58 1.47-.58.606 0 1.096.195 1.47.587.378.388.567.891.567 1.511v.485c0 .602-.192 1.094-.574 1.477-.378.378-.862.567-1.45.567-.592 0-1.082-.189-1.47-.567-.387-.383-.58-.891-.58-1.525v-.478zm.943.526c0 .356.1.65.3.882.201.228.47.342.808.342.323 0 .583-.112.779-.335.2-.223.3-.529.3-.916v-.5c0-.355-.097-.648-.293-.88-.196-.233-.463-.35-.8-.35s-.604.117-.8.35c-.196.232-.294.535-.294.908v.5zm3.903 5.073c0-.597.19-1.087.568-1.47.383-.387.873-.581 1.47-.581.596 0 1.086.191 1.47.574.382.383.573.891.573 1.524v.486c0 .597-.191 1.089-.574 1.476-.378.383-.863.575-1.456.575-.592 0-1.082-.19-1.47-.568-.387-.383-.58-.89-.58-1.524v-.492zm.944.533c0 .36.1.656.3.888.201.228.47.342.807.342.328 0 .59-.111.786-.335.196-.228.294-.535.294-.923v-.505c0-.36-.1-.654-.3-.882-.197-.228-.46-.342-.794-.342-.323 0-.587.114-.792.342-.201.223-.301.526-.301.909v.506zm-3.452 1.155l-.718-.451 4.86-7.78.718.452-4.86 7.779z" fill="#fff"/></svg><svg fill="none" viewBox="0 0 44 22" id="tags20" xmlns="http://www.w3.org/2000/svg"><path fill="#F33030" d="M0 0h44v22H0z"/><path d="M10.246 11.288H6.91v-1.032h3.336v1.032zM18.155 15h-6.522v-.91l3.446-3.827c.51-.58.861-1.048 1.052-1.409.196-.364.294-.74.294-1.127 0-.52-.157-.946-.471-1.279-.315-.332-.734-.499-1.258-.499-.629 0-1.119.18-1.47.54-.346.356-.52.852-.52 1.49h-1.264c0-.916.294-1.656.882-2.221.592-.565 1.383-.848 2.372-.848.925 0 1.656.244 2.194.732.538.483.807 1.128.807 1.934 0 .98-.624 2.147-1.873 3.5l-2.666 2.892h4.997V15zm7.861-4.245c0 1.481-.253 2.582-.759 3.302-.506.72-1.296 1.08-2.372 1.08-1.062 0-1.848-.351-2.358-1.053-.51-.706-.775-1.76-.793-3.158V9.237c0-1.463.253-2.55.758-3.26.506-.711 1.3-1.067 2.38-1.067 1.07 0 1.859.344 2.365 1.032.506.684.765 1.741.779 3.172v1.64zm-1.265-1.73c0-1.07-.15-1.85-.45-2.338-.302-.492-.778-.738-1.43-.738-.647 0-1.118.244-1.415.732-.296.487-.448 1.237-.458 2.249v2.023c0 1.076.155 1.87.465 2.386.315.51.789.765 1.422.765.624 0 1.087-.241 1.388-.724.305-.483.465-1.244.478-2.283V9.025zm3.056-2.064c0-.597.189-1.09.567-1.477.383-.387.873-.58 1.47-.58.606 0 1.096.195 1.47.587.378.388.567.891.567 1.511v.485c0 .602-.192 1.094-.574 1.477-.378.378-.862.567-1.45.567-.592 0-1.082-.189-1.47-.567-.387-.383-.58-.891-.58-1.525v-.478zm.943.526c0 .356.1.65.3.882.201.228.47.342.808.342.323 0 .583-.112.779-.335.2-.223.3-.529.3-.916v-.5c0-.355-.097-.648-.293-.88-.196-.233-.463-.35-.8-.35s-.604.117-.8.35c-.196.232-.294.535-.294.908v.5zm3.903 5.073c0-.597.19-1.087.568-1.47.383-.387.873-.581 1.47-.581.596 0 1.086.191 1.47.574.382.383.573.891.573 1.524v.486c0 .597-.191 1.089-.574 1.476-.378.383-.863.575-1.456.575-.592 0-1.082-.19-1.47-.568-.387-.383-.58-.89-.58-1.524v-.492zm.944.533c0 .36.1.656.3.888.201.228.47.342.807.342.328 0 .59-.111.786-.335.196-.228.294-.535.294-.923v-.505c0-.36-.1-.654-.3-.882-.197-.228-.46-.342-.794-.342-.323 0-.587.114-.792.342-.201.223-.301.526-.301.909v.506zm-3.452 1.155l-.718-.451 4.86-7.78.718.452-4.86 7.779z" fill="#fff"/></svg></svg>