<svg width="28" height="28" viewBox="0 0 28 28" fill="none" xmlns="http://www.w3.org/2000/svg">
<circle cx="14" cy="14" r="13" stroke="#FCB500"/>
<path d="M16.4251 8H11.5749C9.60368 8 8 9.60368 8 11.5749V16.4251C8 18.3963 9.60368 20 11.5749 20H16.4251C18.3963 20 20 18.3963 20 16.4251V11.5749C20 9.60368 18.3963 8 16.4251 8ZM18.7928 16.4251C18.7928 17.7327 17.7327 18.7928 16.4251 18.7928H11.5749C10.2673 18.7928 9.2072 17.7327 9.2072 16.4251V11.5749C9.2072 10.2672 10.2673 9.2072 11.5749 9.2072H16.4251C17.7327 9.2072 18.7928 10.2672 18.7928 11.5749V16.4251Z" fill="#FCB500"/>
<path d="M14.0001 10.8965C12.2888 10.8965 10.8965 12.2888 10.8965 14.0001C10.8965 15.7114 12.2888 17.1037 14.0001 17.1037C15.7115 17.1037 17.1037 15.7114 17.1037 14.0001C17.1037 12.2887 15.7115 10.8965 14.0001 10.8965ZM14.0001 15.8965C12.9527 15.8965 12.1037 15.0475 12.1037 14.0001C12.1037 12.9527 12.9528 12.1037 14.0001 12.1037C15.0475 12.1037 15.8965 12.9527 15.8965 14.0001C15.8965 15.0475 15.0475 15.8965 14.0001 15.8965Z" fill="#FCB500"/>
<path d="M17.1099 11.6632C17.5206 11.6632 17.8536 11.3302 17.8536 10.9195C17.8536 10.5087 17.5206 10.1758 17.1099 10.1758C16.6992 10.1758 16.3662 10.5087 16.3662 10.9195C16.3662 11.3302 16.6992 11.6632 17.1099 11.6632Z" fill="#FCB500"/>
</svg>
