<svg width="40" height="40" viewBox="0 0 40 40" fill="none" xmlns="http://www.w3.org/2000/svg">
<circle cx="20" cy="20" r="20" fill="#FCB500"/>
<path d="M14 17.9671C14 18.1034 14.0549 18.2306 14.1474 18.3231C14.1926 18.3683 14.2463 18.405 14.3073 18.4309C18.399 20.1602 22.5481 20.1602 26.6397 18.431C26.8262 18.3523 26.947 18.1696 26.947 17.9673L26.9466 12.5797C26.9461 4.84653 20.6703 3.03617 20.6065 3.01792C20.5193 2.99394 20.4273 2.99411 20.3403 3.01792C20.2768 3.03548 14 4.84619 14.0002 12.5797L14 17.9671ZM20.4734 4.03052C21.3452 4.32042 25.9405 6.1546 25.9399 12.5797L25.9403 17.6301C22.3112 19.0811 18.6363 19.0811 15.0067 17.63L15.0069 12.5797C15.0069 6.15303 19.6047 4.31938 20.4734 4.03052Z" fill="white"/>
<path d="M22.019 7.35418C23.2847 8.61984 23.9264 10.3781 23.9264 12.5798C23.9264 12.7189 23.9827 12.8447 24.0738 12.9358C24.1648 13.0269 24.2907 13.0832 24.4297 13.0832C24.7078 13.0832 24.9331 12.8579 24.9331 12.5798C24.9332 10.1012 24.1923 8.10363 22.7309 6.64227C22.5342 6.44553 22.2156 6.4457 22.019 6.64227C21.8225 6.83885 21.8223 7.15743 22.019 7.35418Z" fill="white"/>
<path d="M24.3484 32.0426C24.3484 32.1816 24.4047 32.3075 24.4958 32.3985C24.5868 32.4896 24.7127 32.5459 24.8517 32.5459C25.1298 32.5459 25.3551 32.3207 25.3551 32.0426L25.3549 22.1414C25.3549 21.8633 25.1296 21.638 24.8515 21.638C24.5734 21.638 24.3482 21.8633 24.3482 22.1414L24.3484 32.0426Z" fill="white"/>
<path d="M20.4735 33.2867C20.1956 33.2865 19.9702 33.5119 19.9702 33.79L19.97 35.9252C19.97 36.0643 20.0263 36.1901 20.1174 36.2812C20.2084 36.3723 20.3343 36.4286 20.4733 36.4286C20.7512 36.4287 20.9767 36.2033 20.9767 35.9252L20.9768 33.79C20.9768 33.5119 20.7516 33.2867 20.4735 33.2867Z" fill="white"/>
<path d="M19.9701 29.5188C19.9701 29.6578 20.0264 29.7837 20.1174 29.8748C20.2085 29.9658 20.3344 30.0221 20.4734 30.0221C20.7513 30.0223 20.9767 29.7969 20.9767 29.5188L20.9771 26.0243C20.9771 25.7462 20.7518 25.5209 20.4737 25.5209C20.1958 25.5208 19.9704 25.7462 19.9704 26.0243L19.9701 29.5188Z" fill="white"/>
<path d="M16.0953 21.6378C15.8172 21.6378 15.592 21.8631 15.592 22.1411V32.0425C15.592 32.1816 15.6483 32.3074 15.7394 32.3985C15.8305 32.4895 15.9563 32.5459 16.0953 32.5459C16.3734 32.5459 16.5987 32.3206 16.5987 32.0425V22.1411C16.5987 21.8631 16.3734 21.6378 16.0953 21.6378Z" fill="white"/>
</svg>
