<svg width="36" height="30" viewBox="0 0 36 30" fill="none" xmlns="http://www.w3.org/2000/svg">
<path fill-rule="evenodd" clip-rule="evenodd" d="M10.3846 13.1322C11.2711 11.2789 13.1415 10 15.3036 10C18.3206 10 20.7692 12.4889 20.7692 15.5556C20.7692 18.7978 19.147 21.7711 17.1783 24.1611C14.286 27.6733 10.6699 29.9189 10.6699 29.9189C10.495 30.0267 10.2742 30.0267 10.0993 29.9189C10.0993 29.9189 6.48328 27.6733 3.59089 24.1611C1.62219 21.7711 0 18.7978 0 15.5556C0 12.4889 2.44858 10 5.46559 10C7.62777 10 9.4981 11.2789 10.3846 13.1322ZM19.6761 15.5556C19.6761 13.1022 17.7172 11.1111 15.3036 11.1111C12.89 11.1111 10.9312 13.1022 10.9312 15.5556V15.5767C10.9191 15.8733 10.6787 16.1111 10.3846 16.1111C10.0851 16.1111 9.84243 15.8667 9.83806 15.5633V15.5556C9.83806 13.1022 7.87919 11.1111 5.46559 11.1111C3.05198 11.1111 1.09312 13.1022 1.09312 15.5556C1.09312 18.5356 2.61911 21.2511 4.42822 23.4478C6.72704 26.2378 9.50028 28.1956 10.3846 28.7844C11.2689 28.1956 14.0422 26.2378 16.341 23.4478C18.1501 21.2511 19.6761 18.5356 19.6761 15.5556Z" fill="white"/>
<circle cx="25" cy="11" r="11" fill="#FCB500"/>
<path d="M26.4551 11.959H27.5156V13.1016H26.4551V15H25.0312V13.1016H21.3457L21.3047 12.2344L24.9844 6.46875H26.4551V11.959ZM22.7988 11.959H25.0312V8.39648L24.9258 8.58398L22.7988 11.959Z" fill="black"/>
</svg>
