<svg width="53" height="40" viewBox="0 0 53 40" fill="none" xmlns="http://www.w3.org/2000/svg">
<g clip-path="url(#clip0_143_3461)">
<path d="M44.5646 17.5287C44.2346 17.4262 43.8846 17.6062 43.7796 17.935C43.6759 18.2637 43.8571 18.615 44.1859 18.72C49.0709 20.2762 51.2496 22.5975 51.2496 26.25C51.2496 29.4987 48.2859 32.02 46.5209 33.235C46.3509 33.3525 46.2496 33.5437 46.2496 33.75V38.5287C45.3371 38.1887 43.7459 37.4162 42.3421 35.835C42.1959 35.6712 41.9734 35.5962 41.7571 35.6362C41.4009 35.705 41.0371 35.8025 40.6684 35.9012C40.0309 36.0725 39.3734 36.25 38.7496 36.25C35.5396 36.25 33.2921 35.56 30.9946 33.8712C30.7146 33.6662 30.3259 33.7275 30.1209 34.005C29.9159 34.2837 29.9759 34.6737 30.2534 34.8787C32.7871 36.7412 35.2484 37.5 38.7496 37.5C39.5384 37.5 40.2784 37.3012 40.9934 37.1087C41.2159 37.0475 41.4371 36.9875 41.6559 36.9362C43.9921 39.4037 46.6346 39.965 46.7496 39.9875C46.7909 39.9962 46.8321 40 46.8746 40C47.0171 40 47.1584 39.9512 47.2696 39.8587C47.4159 39.74 47.4996 39.5625 47.4996 39.375V34.0762C50.7271 31.775 52.4996 29.005 52.4996 26.25C52.4996 22.0237 49.9784 19.2525 44.5646 17.5287Z" fill="#FCB500"/>
<path d="M41.25 16.875C41.25 7.255 32.4775 0 20.8463 0C9.15625 0 0 7.41375 0 16.8775C0 22.5513 4.01375 26.6162 7.5 29.0763V37.3713C7.5 37.5837 7.6075 37.78 7.785 37.8962C7.88875 37.9625 8.00625 37.9963 8.125 37.9963C8.21125 37.9963 8.29875 37.9775 8.38125 37.9412C8.56375 37.86 12.83 35.9212 16.48 31.93C18.0613 32.2238 19.85 32.5062 21.4725 32.5062C33.3013 32.5062 41.25 26.2238 41.25 16.875ZM21.4713 31.2562C19.8337 31.2562 17.9725 30.9425 16.3675 30.6363C16.1512 30.5975 15.9288 30.6712 15.7825 30.835C13.22 33.725 10.2087 35.5613 8.75 36.3525V28.75C8.75 28.5438 8.64875 28.3525 8.47875 28.235C5.18125 25.9662 1.25 22.1562 1.25 16.8775C1.25 8.11375 9.8575 1.25 20.8463 1.25C31.7663 1.25 40 7.9675 40 16.875C40 25.4775 32.5537 31.2562 21.4713 31.2562Z" fill="#FCB500"/>
<path d="M20.625 14.375C19.2462 14.375 18.125 15.4962 18.125 16.875C18.125 18.2538 19.2462 19.375 20.625 19.375C22.0038 19.375 23.125 18.2538 23.125 16.875C23.125 15.4962 22.0038 14.375 20.625 14.375ZM20.625 18.125C19.9362 18.125 19.375 17.565 19.375 16.875C19.375 16.185 19.9362 15.625 20.625 15.625C21.3138 15.625 21.875 16.185 21.875 16.875C21.875 17.565 21.3138 18.125 20.625 18.125Z" fill="#FCB500"/>
<path d="M29.375 14.375C27.9962 14.375 26.875 15.4962 26.875 16.875C26.875 18.2538 27.9962 19.375 29.375 19.375C30.7538 19.375 31.875 18.2538 31.875 16.875C31.875 15.4962 30.7538 14.375 29.375 14.375ZM29.375 18.125C28.6862 18.125 28.125 17.565 28.125 16.875C28.125 16.185 28.6862 15.625 29.375 15.625C30.0638 15.625 30.625 16.185 30.625 16.875C30.625 17.565 30.0638 18.125 29.375 18.125Z" fill="#FCB500"/>
<path d="M11.875 14.4939C10.4962 14.4939 9.375 15.6151 9.375 16.9939C9.375 18.3726 10.4962 19.4939 11.875 19.4939C13.2538 19.4939 14.375 18.3726 14.375 16.9939C14.375 15.6151 13.2538 14.4939 11.875 14.4939ZM11.875 18.2439C11.1862 18.2439 10.625 17.6839 10.625 16.9939C10.625 16.3039 11.1862 15.7439 11.875 15.7439C12.5638 15.7439 13.125 16.3039 13.125 16.9939C13.125 17.6839 12.5638 18.2439 11.875 18.2439Z" fill="#FCB500"/>
</g>
<defs>
<clipPath id="clip0_143_3461">
<rect width="52.5" height="40" fill="white"/>
</clipPath>
</defs>
</svg>
