<svg width="40" height="40" viewBox="0 0 40 40" fill="none" xmlns="http://www.w3.org/2000/svg">
<g clip-path="url(#clip0_143_3463)">
<path d="M0.81028 7.05757C-0.252789 8.11757 -0.025616 9.61007 0.820321 10.4513C0.854208 10.4838 4.25176 13.7163 9.02992 18.4751C9.15292 18.5976 9.31357 18.6576 9.47423 18.6576C9.63488 18.6576 9.79553 18.5963 9.91853 18.4751C10.1633 18.2313 10.1633 17.8351 9.91853 17.5913C9.19811 16.8738 8.51282 16.1951 7.86268 15.5526L9.85703 13.5663C10.1018 13.3226 10.1018 12.9263 9.85703 12.6826C9.61229 12.4388 9.21442 12.4388 8.96968 12.6826L6.9703 14.6738C5.85201 13.5738 4.86676 12.6138 4.06475 11.8351L8.60193 7.31632C8.84668 7.07257 8.84668 6.67632 8.60193 6.43257C8.35719 6.18882 7.95932 6.18882 7.71458 6.43257L3.16359 10.9651C2.23984 10.0738 1.70768 9.56757 1.69889 9.55882C1.43406 9.29507 1.0864 8.55257 1.69889 7.94257L7.97438 1.69257C8.21662 1.44757 8.86174 0.961318 9.56961 1.66257C9.60099 1.69757 12.7701 5.28257 17.6073 10.1001C17.852 10.3438 18.2499 10.3438 18.4946 10.1001C18.7394 9.85632 18.7394 9.46007 18.4946 9.21632C13.6876 4.43007 10.5423 0.872568 10.4846 0.807568C9.31483 -0.354932 7.9041 -0.00618233 7.08703 0.807568L0.81028 7.05757Z" fill="#FCB500"/>
<path d="M27.4291 30.1826C27.1844 29.9388 26.7865 29.9388 26.5418 30.1826L24.5449 32.1701C23.9362 31.5563 23.2974 30.9138 22.6246 30.2438C22.3799 30.0001 21.982 30.0001 21.7373 30.2438C21.4925 30.4876 21.4925 30.8838 21.7373 31.1276C26.3862 35.7563 29.6331 39.2138 29.6795 39.2638C30.11 39.6938 30.6999 39.9301 31.34 39.9301C31.999 39.9301 32.6654 39.6738 33.0783 39.2613L39.3513 32.9401C40.1408 32.1538 40.186 30.8201 39.4492 30.0838L31.0325 21.7026C30.7878 21.4588 30.3899 21.4588 30.1452 21.7026C29.9004 21.9463 29.9004 22.3426 30.1452 22.5863L38.5619 30.9676C38.8129 31.2176 38.7652 31.7576 38.4627 32.0588L32.1885 38.3801C32.0441 38.5251 31.7166 38.6801 31.34 38.6801C31.1242 38.6801 30.8154 38.6276 30.5819 38.3938C30.5694 38.3801 30.0435 37.8213 29.1311 36.8701L33.7046 32.3151C33.9494 32.0713 33.9494 31.6751 33.7046 31.4313C33.4599 31.1876 33.062 31.1876 32.8173 31.4313L28.2625 35.9676C27.4793 35.1563 26.5192 34.1701 25.426 33.0601L27.4291 31.0651C27.6739 30.8226 27.6739 30.4276 27.4291 30.1826Z" fill="#FCB500"/>
<path d="M0.178114 39.7863C0.298604 39.9088 0.460511 39.9738 0.62744 39.9738C0.687684 39.9738 0.747929 39.9651 0.806919 39.9476L13.3579 36.2238C13.4596 36.1938 13.5499 36.1401 13.624 36.0651L35.0736 14.5588C35.1037 14.5288 35.1188 14.4901 35.1414 14.4563L39.73 9.88632C40.099 9.51757 40.3036 9.02882 40.3036 8.50757C40.3036 7.98757 40.099 7.49882 39.73 7.13257L33.1596 0.590068C32.4216 -0.144932 31.1326 -0.144932 30.3946 0.590068L25.7018 5.26382C25.6717 5.29382 25.6554 5.33257 25.6328 5.36757L4.1505 26.7638C4.08022 26.8338 4.0275 26.9188 3.99738 27.0126L0.0312676 39.1563C-0.0415281 39.3776 0.0149514 39.6188 0.178114 39.7863ZM26.1812 6.58882L27.4853 7.88757L8.0024 27.3438L5.83484 26.8538L26.1812 6.58882ZM8.78558 28.3326L28.3739 8.77257L31.4313 11.8176L11.666 31.2501H8.78558V28.3326ZM33.742 14.1201L13.3541 34.5626L12.6299 32.0601L32.3187 12.7013L33.742 14.1201ZM5.0115 27.9488L7.53048 28.5188V31.8751C7.53048 32.2201 7.81162 32.5001 8.15803 32.5001H11.4514L12.2471 35.2501L1.59387 38.4113L5.0115 27.9488ZM31.2832 1.47382C31.548 1.21007 32.0087 1.21007 32.2735 1.47382L38.8439 8.01757C38.9757 8.14882 39.0485 8.32382 39.0485 8.51007C39.0485 8.69507 38.9757 8.87132 38.8427 9.00382L34.6117 13.2188L27.0523 5.69007L31.2832 1.47382Z" fill="#FCB500"/>
</g>
<defs>
<clipPath id="clip0_143_3463">
<rect width="40" height="40" fill="white"/>
</clipPath>
</defs>
</svg>
