<svg width="29" height="26" viewBox="0 0 29 26" fill="none" xmlns="http://www.w3.org/2000/svg">
<path d="M1.01662 1.93513H27.2783C27.5088 1.93513 27.7299 1.84031 27.8929 1.67153C28.0559 1.50275 28.1475 1.27383 28.1475 1.03513C28.1475 0.796437 28.0559 0.567519 27.8929 0.398736C27.7299 0.229953 27.5088 0.135132 27.2783 0.135132H1.01662C0.786106 0.135132 0.565031 0.229953 0.402032 0.398736C0.239033 0.567519 0.147461 0.796437 0.147461 1.03513C0.147461 1.27383 0.239033 1.50275 0.402032 1.67153C0.565031 1.84031 0.786106 1.93513 1.01662 1.93513Z" fill="white"/>
<path d="M27.2783 11.9365H1.01662C0.786106 11.9365 0.565031 12.0313 0.402032 12.2001C0.239033 12.3689 0.147461 12.5978 0.147461 12.8365C0.147461 13.0752 0.239033 13.3041 0.402032 13.4729C0.565031 13.6417 0.786106 13.7365 1.01662 13.7365H27.2783C27.5088 13.7365 27.7299 13.6417 27.8929 13.4729C28.0559 13.3041 28.1475 13.0752 28.1475 12.8365C28.1475 12.5978 28.0559 12.3689 27.8929 12.2001C27.7299 12.0313 27.5088 11.9365 27.2783 11.9365Z" fill="white"/>
<path d="M27.2783 23.7848H1.01662C0.786106 23.7848 0.565031 23.8796 0.402032 24.0484C0.239033 24.2172 0.147461 24.4461 0.147461 24.6848C0.147461 24.9235 0.239033 25.1524 0.402032 25.3212C0.565031 25.49 0.786106 25.5848 1.01662 25.5848H27.2783C27.5088 25.5848 27.7299 25.49 27.8929 25.3212C28.0559 25.1524 28.1475 24.9235 28.1475 24.6848C28.1475 24.4461 28.0559 24.2172 27.8929 24.0484C27.7299 23.8796 27.5088 23.7848 27.2783 23.7848Z" fill="white"/>
</svg>
