<svg width="36" height="30" viewBox="0 0 36 30" fill="none" xmlns="http://www.w3.org/2000/svg">
<path fill-rule="evenodd" clip-rule="evenodd" d="M6.47462 26.4706C5.49989 26.4706 4.70881 27.2612 4.70881 28.2353C4.70881 29.2094 5.49989 30 6.47462 30C7.44934 30 8.24042 29.2094 8.24042 28.2353C8.24042 27.2612 7.44934 26.4706 6.47462 26.4706ZM18.2467 26.4706C17.2719 26.4706 16.4808 27.2612 16.4808 28.2353C16.4808 29.2094 17.2719 30 18.2467 30C19.2214 30 20.0125 29.2094 20.0125 28.2353C20.0125 27.2612 19.2214 26.4706 18.2467 26.4706ZM6.47462 27.6471C6.79953 27.6471 7.06322 27.9106 7.06322 28.2353C7.06322 28.56 6.79953 28.8235 6.47462 28.8235C6.14971 28.8235 5.88602 28.56 5.88602 28.2353C5.88602 27.9106 6.14971 27.6471 6.47462 27.6471ZM18.2467 27.6471C18.5716 27.6471 18.8353 27.9106 18.8353 28.2353C18.8353 28.56 18.5716 28.8235 18.2467 28.8235C17.9217 28.8235 17.658 28.56 17.658 28.2353C17.658 27.9106 17.9217 27.6471 18.2467 27.6471ZM7.29631 22.9412L7.44463 23.6494C7.50114 23.9224 7.74129 24.1176 8.02029 24.1176H15.8922C16.2172 24.1176 16.4808 24.3812 16.4808 24.7059C16.4808 25.0306 16.2172 25.2941 15.8922 25.2941H8.02029C7.18447 25.2941 6.46285 24.7082 6.29215 23.8894C5.7577 21.3247 4.27325 14.2094 3.7388 11.6447C3.68229 11.3718 3.44214 11.1765 3.16315 11.1765H0.588602C0.263694 11.1765 0 10.9129 0 10.5882C0 10.2635 0.263694 10 0.588602 10H3.16315C3.99896 10 4.72059 10.5859 4.89128 11.4047L7.05145 21.7647H17.4615C17.7499 21.7647 17.9947 21.5565 18.043 21.2729C18.2667 19.9271 18.6669 17.5259 18.8918 16.18C19.0342 15.3294 19.77 14.7059 20.634 14.7059C20.9589 14.7059 21.2226 14.9694 21.2226 15.2941C21.2226 15.6188 20.9589 15.8824 20.634 15.8824C20.3456 15.8824 20.1007 16.0906 20.0525 16.3741C19.8288 17.72 19.4286 20.1212 19.2037 21.4671C19.0613 22.3176 18.3255 22.9412 17.4615 22.9412H7.29631Z" fill="white"/>
<circle cx="25" cy="11" r="11" fill="#FCB500"/>
<path d="M24.375 15H18.6387V14.0215L21.4805 10.9219C21.8906 10.4648 22.1816 10.084 22.3535 9.7793C22.5293 9.4707 22.6172 9.16211 22.6172 8.85352C22.6172 8.44727 22.502 8.11914 22.2715 7.86914C22.0449 7.61914 21.7383 7.49414 21.3516 7.49414C20.8906 7.49414 20.5332 7.63477 20.2793 7.91602C20.0254 8.19727 19.8984 8.58203 19.8984 9.07031H18.4746C18.4746 8.55078 18.5918 8.08398 18.8262 7.66992C19.0645 7.25195 19.4023 6.92773 19.8398 6.69727C20.2812 6.4668 20.7891 6.35156 21.3633 6.35156C22.1914 6.35156 22.8438 6.56055 23.3203 6.97852C23.8008 7.39258 24.041 7.9668 24.041 8.70117C24.041 9.12695 23.9199 9.57422 23.6777 10.043C23.4395 10.5078 23.0469 11.0371 22.5 11.6309L20.4141 13.8633H24.375V15ZM30.832 8.71875C30.832 9.13672 30.7246 9.50977 30.5098 9.83789C30.2949 10.1621 30.002 10.418 29.6309 10.6055C30.0762 10.8125 30.418 11.0957 30.6562 11.4551C30.8984 11.8145 31.0195 12.2207 31.0195 12.6738C31.0195 13.4238 30.7656 14.0195 30.2578 14.4609C29.75 14.8984 29.0742 15.1172 28.2305 15.1172C27.3828 15.1172 26.7031 14.8965 26.1914 14.4551C25.6836 14.0137 25.4297 13.4199 25.4297 12.6738C25.4297 12.2168 25.5508 11.8066 25.793 11.4434C26.0352 11.0801 26.375 10.8008 26.8125 10.6055C26.4453 10.418 26.1543 10.1621 25.9395 9.83789C25.7285 9.50977 25.623 9.13672 25.623 8.71875C25.623 7.99219 25.8574 7.41602 26.3262 6.99023C26.7949 6.56445 27.4277 6.35156 28.2246 6.35156C29.0254 6.35156 29.6602 6.56445 30.1289 6.99023C30.5977 7.41602 30.832 7.99219 30.832 8.71875ZM29.5957 12.6035C29.5957 12.1816 29.4688 11.8418 29.2148 11.584C28.9648 11.3223 28.6328 11.1914 28.2188 11.1914C27.8047 11.1914 27.4727 11.3203 27.2227 11.5781C26.9766 11.8359 26.8535 12.1777 26.8535 12.6035C26.8535 13.0215 26.9746 13.3555 27.2168 13.6055C27.4629 13.8555 27.8008 13.9805 28.2305 13.9805C28.6602 13.9805 28.9941 13.8594 29.2324 13.6172C29.4746 13.375 29.5957 13.0371 29.5957 12.6035ZM29.4141 8.77148C29.4141 8.40039 29.3066 8.0957 29.0918 7.85742C28.877 7.61523 28.5879 7.49414 28.2246 7.49414C27.8613 7.49414 27.5742 7.60938 27.3633 7.83984C27.1523 8.06641 27.0469 8.37695 27.0469 8.77148C27.0469 9.16211 27.1523 9.47266 27.3633 9.70312C27.5781 9.93359 27.8672 10.0488 28.2305 10.0488C28.5938 10.0488 28.8809 9.93359 29.0918 9.70312C29.3066 9.47266 29.4141 9.16211 29.4141 8.77148Z" fill="black"/>
</svg>
